<svg width="620" height="342" viewBox="0 0 620 342" fill="none" xmlns="http://www.w3.org/2000/svg">
<line x1="105" y1="127.5" x2="617" y2="127.5" stroke="#191E24"/>
<line x1="233.5" y1="2" x2="233.5" y2="258" stroke="#191E24"/>
<line x1="617.5" y1="2.18557e-08" x2="617.5" y2="256" stroke="#191E24" stroke-dasharray="2 2"/>
<line x1="107.5" y1="10" x2="107.5" y2="266" stroke="#191E24" stroke-dasharray="2 2"/>
<path d="M107 266L233 127C294.333 39 457.4 -84.2 619 127" stroke="#FF1F70" stroke-width="2"/>
<path d="M130.928 339.12C130.232 339.12 129.648 339.016 129.176 338.808C128.704 338.592 128.34 338.316 128.084 337.98C127.836 337.636 127.704 337.272 127.688 336.888C127.688 336.824 127.712 336.768 127.76 336.72C127.816 336.664 127.88 336.636 127.952 336.636H128.564C128.66 336.636 128.732 336.66 128.78 336.708C128.828 336.756 128.86 336.812 128.876 336.876C128.916 337.068 129.012 337.26 129.164 337.452C129.324 337.636 129.544 337.792 129.824 337.92C130.112 338.04 130.48 338.1 130.928 338.1C131.616 338.1 132.12 337.98 132.44 337.74C132.768 337.492 132.932 337.164 132.932 336.756C132.932 336.476 132.844 336.252 132.668 336.084C132.5 335.908 132.24 335.752 131.888 335.616C131.536 335.48 131.08 335.332 130.52 335.172C129.936 335.004 129.452 334.82 129.068 334.62C128.684 334.42 128.396 334.172 128.204 333.876C128.02 333.58 127.928 333.204 127.928 332.748C127.928 332.316 128.044 331.932 128.276 331.596C128.508 331.252 128.84 330.98 129.272 330.78C129.712 330.58 130.244 330.48 130.868 330.48C131.364 330.48 131.796 330.548 132.164 330.684C132.54 330.812 132.852 330.988 133.1 331.212C133.348 331.428 133.536 331.664 133.664 331.92C133.792 332.168 133.86 332.412 133.868 332.652C133.868 332.708 133.848 332.764 133.808 332.82C133.768 332.868 133.704 332.892 133.616 332.892H132.98C132.924 332.892 132.864 332.876 132.8 332.844C132.744 332.812 132.7 332.752 132.668 332.664C132.62 332.336 132.436 332.06 132.116 331.836C131.796 331.612 131.38 331.5 130.868 331.5C130.348 331.5 129.924 331.6 129.596 331.8C129.276 332 129.116 332.312 129.116 332.736C129.116 333.008 129.192 333.236 129.344 333.42C129.496 333.596 129.736 333.752 130.064 333.888C130.392 334.024 130.82 334.168 131.348 334.32C131.988 334.496 132.512 334.684 132.92 334.884C133.328 335.076 133.628 335.32 133.82 335.616C134.02 335.904 134.12 336.276 134.12 336.732C134.12 337.236 133.988 337.668 133.724 338.028C133.46 338.38 133.088 338.652 132.608 338.844C132.136 339.028 131.576 339.12 130.928 339.12ZM138.02 339.12C137.196 339.12 136.54 338.868 136.052 338.364C135.564 337.852 135.296 337.156 135.248 336.276C135.24 336.172 135.236 336.04 135.236 335.88C135.236 335.712 135.24 335.576 135.248 335.472C135.28 334.904 135.412 334.408 135.644 333.984C135.876 333.552 136.192 333.22 136.592 332.988C137 332.756 137.476 332.64 138.02 332.64C138.628 332.64 139.136 332.768 139.544 333.024C139.96 333.28 140.276 333.644 140.492 334.116C140.708 334.588 140.816 335.14 140.816 335.772V335.976C140.816 336.064 140.788 336.132 140.732 336.18C140.684 336.228 140.62 336.252 140.54 336.252H136.388C136.388 336.26 136.388 336.276 136.388 336.3C136.388 336.324 136.388 336.344 136.388 336.36C136.404 336.688 136.476 336.996 136.604 337.284C136.732 337.564 136.916 337.792 137.156 337.968C137.396 338.144 137.684 338.232 138.02 338.232C138.308 338.232 138.548 338.188 138.74 338.1C138.932 338.012 139.088 337.916 139.208 337.812C139.328 337.7 139.408 337.616 139.448 337.56C139.52 337.456 139.576 337.396 139.616 337.38C139.656 337.356 139.72 337.344 139.808 337.344H140.384C140.464 337.344 140.528 337.368 140.576 337.416C140.632 337.456 140.656 337.516 140.648 337.596C140.64 337.716 140.576 337.864 140.456 338.04C140.336 338.208 140.164 338.376 139.94 338.544C139.716 338.712 139.444 338.852 139.124 338.964C138.804 339.068 138.436 339.12 138.02 339.12ZM136.388 335.424H139.676V335.388C139.676 335.028 139.608 334.708 139.472 334.428C139.344 334.148 139.156 333.928 138.908 333.768C138.66 333.6 138.364 333.516 138.02 333.516C137.676 333.516 137.38 333.6 137.132 333.768C136.892 333.928 136.708 334.148 136.58 334.428C136.452 334.708 136.388 335.028 136.388 335.388V335.424ZM142.539 341.28C142.459 341.28 142.391 341.252 142.335 341.196C142.287 341.148 142.263 341.084 142.263 341.004V333.036C142.263 332.956 142.287 332.892 142.335 332.844C142.391 332.788 142.459 332.76 142.539 332.76H143.091C143.171 332.76 143.235 332.788 143.283 332.844C143.339 332.892 143.367 332.956 143.367 333.036V333.564C143.559 333.3 143.815 333.08 144.135 332.904C144.455 332.728 144.855 332.64 145.335 332.64C145.783 332.64 146.163 332.716 146.475 332.868C146.795 333.02 147.055 333.228 147.255 333.492C147.463 333.756 147.619 334.056 147.723 334.392C147.827 334.728 147.883 335.088 147.891 335.472C147.899 335.6 147.903 335.736 147.903 335.88C147.903 336.024 147.899 336.16 147.891 336.288C147.883 336.664 147.827 337.024 147.723 337.368C147.619 337.704 147.463 338.004 147.255 338.268C147.055 338.524 146.795 338.732 146.475 338.892C146.163 339.044 145.783 339.12 145.335 339.12C144.871 339.12 144.479 339.036 144.159 338.868C143.847 338.692 143.591 338.476 143.391 338.22V341.004C143.391 341.084 143.367 341.148 143.319 341.196C143.271 341.252 143.203 341.28 143.115 341.28H142.539ZM145.083 338.148C145.499 338.148 145.823 338.06 146.055 337.884C146.295 337.7 146.467 337.464 146.571 337.176C146.675 336.88 146.735 336.564 146.751 336.228C146.759 335.996 146.759 335.764 146.751 335.532C146.735 335.196 146.675 334.884 146.571 334.596C146.467 334.3 146.295 334.064 146.055 333.888C145.823 333.704 145.499 333.612 145.083 333.612C144.691 333.612 144.371 333.704 144.123 333.888C143.883 334.072 143.703 334.308 143.583 334.596C143.471 334.876 143.407 335.164 143.391 335.46C143.383 335.588 143.379 335.74 143.379 335.916C143.379 336.092 143.383 336.248 143.391 336.384C143.399 336.664 143.463 336.94 143.583 337.212C143.711 337.484 143.899 337.708 144.147 337.884C144.395 338.06 144.707 338.148 145.083 338.148ZM151.14 339.12C150.74 339.12 150.376 339.04 150.048 338.88C149.72 338.72 149.456 338.504 149.256 338.232C149.056 337.96 148.956 337.652 148.956 337.308C148.956 336.756 149.18 336.316 149.628 335.988C150.076 335.66 150.66 335.444 151.38 335.34L153.168 335.088V334.74C153.168 334.356 153.056 334.056 152.832 333.84C152.616 333.624 152.26 333.516 151.764 333.516C151.404 333.516 151.112 333.588 150.888 333.732C150.672 333.876 150.52 334.06 150.432 334.284C150.384 334.404 150.3 334.464 150.18 334.464H149.64C149.552 334.464 149.484 334.44 149.436 334.392C149.396 334.336 149.376 334.272 149.376 334.2C149.376 334.08 149.42 333.932 149.508 333.756C149.604 333.58 149.748 333.408 149.94 333.24C150.132 333.072 150.376 332.932 150.672 332.82C150.976 332.7 151.344 332.64 151.776 332.64C152.256 332.64 152.66 332.704 152.988 332.832C153.316 332.952 153.572 333.116 153.756 333.324C153.948 333.532 154.084 333.768 154.164 334.032C154.252 334.296 154.296 334.564 154.296 334.836V338.724C154.296 338.804 154.268 338.872 154.212 338.928C154.164 338.976 154.1 339 154.02 339H153.468C153.38 339 153.312 338.976 153.264 338.928C153.216 338.872 153.192 338.804 153.192 338.724V338.208C153.088 338.352 152.948 338.496 152.772 338.64C152.596 338.776 152.376 338.892 152.112 338.988C151.848 339.076 151.524 339.12 151.14 339.12ZM151.392 338.22C151.72 338.22 152.02 338.152 152.292 338.016C152.564 337.872 152.776 337.652 152.928 337.356C153.088 337.06 153.168 336.688 153.168 336.24V335.904L151.776 336.108C151.208 336.188 150.78 336.324 150.492 336.516C150.204 336.7 150.06 336.936 150.06 337.224C150.06 337.448 150.124 337.636 150.252 337.788C150.388 337.932 150.556 338.04 150.756 338.112C150.964 338.184 151.176 338.22 151.392 338.22ZM156.297 339C156.217 339 156.149 338.976 156.093 338.928C156.045 338.872 156.021 338.804 156.021 338.724V333.048C156.021 332.968 156.045 332.9 156.093 332.844C156.149 332.788 156.217 332.76 156.297 332.76H156.849C156.929 332.76 156.997 332.788 157.053 332.844C157.109 332.9 157.137 332.968 157.137 333.048V333.576C157.297 333.304 157.517 333.1 157.797 332.964C158.077 332.828 158.413 332.76 158.805 332.76H159.285C159.365 332.76 159.429 332.788 159.477 332.844C159.525 332.892 159.549 332.956 159.549 333.036V333.528C159.549 333.608 159.525 333.672 159.477 333.72C159.429 333.768 159.365 333.792 159.285 333.792H158.565C158.133 333.792 157.793 333.92 157.545 334.176C157.297 334.424 157.173 334.764 157.173 335.196V338.724C157.173 338.804 157.145 338.872 157.089 338.928C157.033 338.976 156.965 339 156.885 339H156.297ZM162.226 339.12C161.826 339.12 161.462 339.04 161.134 338.88C160.806 338.72 160.542 338.504 160.342 338.232C160.142 337.96 160.042 337.652 160.042 337.308C160.042 336.756 160.266 336.316 160.714 335.988C161.162 335.66 161.746 335.444 162.466 335.34L164.254 335.088V334.74C164.254 334.356 164.142 334.056 163.918 333.84C163.702 333.624 163.346 333.516 162.85 333.516C162.49 333.516 162.198 333.588 161.974 333.732C161.758 333.876 161.606 334.06 161.518 334.284C161.47 334.404 161.386 334.464 161.266 334.464H160.726C160.638 334.464 160.57 334.44 160.522 334.392C160.482 334.336 160.462 334.272 160.462 334.2C160.462 334.08 160.506 333.932 160.594 333.756C160.69 333.58 160.834 333.408 161.026 333.24C161.218 333.072 161.462 332.932 161.758 332.82C162.062 332.7 162.43 332.64 162.862 332.64C163.342 332.64 163.746 332.704 164.074 332.832C164.402 332.952 164.658 333.116 164.842 333.324C165.034 333.532 165.17 333.768 165.25 334.032C165.338 334.296 165.382 334.564 165.382 334.836V338.724C165.382 338.804 165.354 338.872 165.298 338.928C165.25 338.976 165.186 339 165.106 339H164.554C164.466 339 164.398 338.976 164.35 338.928C164.302 338.872 164.278 338.804 164.278 338.724V338.208C164.174 338.352 164.034 338.496 163.858 338.64C163.682 338.776 163.462 338.892 163.198 338.988C162.934 339.076 162.61 339.12 162.226 339.12ZM162.478 338.22C162.806 338.22 163.106 338.152 163.378 338.016C163.65 337.872 163.862 337.652 164.014 337.356C164.174 337.06 164.254 336.688 164.254 336.24V335.904L162.862 336.108C162.294 336.188 161.866 336.324 161.578 336.516C161.29 336.7 161.146 336.936 161.146 337.224C161.146 337.448 161.21 337.636 161.338 337.788C161.474 337.932 161.642 338.04 161.842 338.112C162.05 338.184 162.262 338.22 162.478 338.22ZM169.484 339C169.036 339 168.672 338.916 168.392 338.748C168.112 338.572 167.908 338.328 167.78 338.016C167.652 337.696 167.588 337.32 167.588 336.888V333.72H166.652C166.572 333.72 166.504 333.696 166.448 333.648C166.4 333.592 166.376 333.524 166.376 333.444V333.036C166.376 332.956 166.4 332.892 166.448 332.844C166.504 332.788 166.572 332.76 166.652 332.76H167.588V330.756C167.588 330.676 167.612 330.612 167.66 330.564C167.716 330.508 167.784 330.48 167.864 330.48H168.428C168.508 330.48 168.572 330.508 168.62 330.564C168.676 330.612 168.704 330.676 168.704 330.756V332.76H170.192C170.272 332.76 170.336 332.788 170.384 332.844C170.44 332.892 170.468 332.956 170.468 333.036V333.444C170.468 333.524 170.44 333.592 170.384 333.648C170.336 333.696 170.272 333.72 170.192 333.72H168.704V336.804C168.704 337.18 168.768 337.476 168.896 337.692C169.024 337.908 169.252 338.016 169.58 338.016H170.312C170.392 338.016 170.456 338.044 170.504 338.1C170.56 338.148 170.588 338.212 170.588 338.292V338.724C170.588 338.804 170.56 338.872 170.504 338.928C170.456 338.976 170.392 339 170.312 339H169.484ZM172.012 339C171.932 339 171.864 338.976 171.808 338.928C171.76 338.872 171.736 338.804 171.736 338.724V333.036C171.736 332.956 171.76 332.892 171.808 332.844C171.864 332.788 171.932 332.76 172.012 332.76H172.588C172.668 332.76 172.732 332.788 172.78 332.844C172.828 332.892 172.852 332.956 172.852 333.036V338.724C172.852 338.804 172.828 338.872 172.78 338.928C172.732 338.976 172.668 339 172.588 339H172.012ZM171.916 331.596C171.836 331.596 171.768 331.572 171.712 331.524C171.664 331.468 171.64 331.4 171.64 331.32V330.672C171.64 330.592 171.664 330.528 171.712 330.48C171.768 330.424 171.836 330.396 171.916 330.396H172.672C172.752 330.396 172.816 330.424 172.864 330.48C172.92 330.528 172.948 330.592 172.948 330.672V331.32C172.948 331.4 172.92 331.468 172.864 331.524C172.816 331.572 172.752 331.596 172.672 331.596H171.916ZM177.221 339.12C176.613 339.12 176.105 339.004 175.697 338.772C175.289 338.54 174.977 338.22 174.761 337.812C174.545 337.396 174.425 336.924 174.401 336.396C174.393 336.26 174.389 336.088 174.389 335.88C174.389 335.664 174.393 335.492 174.401 335.364C174.425 334.828 174.545 334.356 174.761 333.948C174.985 333.54 175.301 333.22 175.709 332.988C176.117 332.756 176.621 332.64 177.221 332.64C177.821 332.64 178.325 332.756 178.733 332.988C179.141 333.22 179.453 333.54 179.669 333.948C179.893 334.356 180.017 334.828 180.041 335.364C180.049 335.492 180.053 335.664 180.053 335.88C180.053 336.088 180.049 336.26 180.041 336.396C180.017 336.924 179.897 337.396 179.681 337.812C179.465 338.22 179.153 338.54 178.745 338.772C178.337 339.004 177.829 339.12 177.221 339.12ZM177.221 338.196C177.717 338.196 178.113 338.04 178.409 337.728C178.705 337.408 178.865 336.944 178.889 336.336C178.897 336.216 178.901 336.064 178.901 335.88C178.901 335.696 178.897 335.544 178.889 335.424C178.865 334.816 178.705 334.356 178.409 334.044C178.113 333.724 177.717 333.564 177.221 333.564C176.725 333.564 176.325 333.724 176.021 334.044C175.725 334.356 175.569 334.816 175.553 335.424C175.545 335.544 175.541 335.696 175.541 335.88C175.541 336.064 175.545 336.216 175.553 336.336C175.569 336.944 175.725 337.408 176.021 337.728C176.325 338.04 176.725 338.196 177.221 338.196ZM181.832 339C181.752 339 181.684 338.976 181.628 338.928C181.58 338.872 181.556 338.804 181.556 338.724V333.036C181.556 332.956 181.58 332.892 181.628 332.844C181.684 332.788 181.752 332.76 181.832 332.76H182.396C182.476 332.76 182.54 332.788 182.588 332.844C182.644 332.892 182.672 332.956 182.672 333.036V333.564C182.88 333.292 183.14 333.072 183.452 332.904C183.772 332.728 184.18 332.64 184.676 332.64C185.196 332.64 185.636 332.756 185.996 332.988C186.364 333.212 186.64 333.528 186.824 333.936C187.008 334.336 187.1 334.804 187.1 335.34V338.724C187.1 338.804 187.076 338.872 187.028 338.928C186.98 338.976 186.916 339 186.836 339H186.236C186.156 339 186.088 338.976 186.032 338.928C185.984 338.872 185.96 338.804 185.96 338.724V335.4C185.96 334.84 185.824 334.404 185.552 334.092C185.28 333.772 184.88 333.612 184.352 333.612C183.856 333.612 183.456 333.772 183.152 334.092C182.856 334.404 182.708 334.84 182.708 335.4V338.724C182.708 338.804 182.68 338.872 182.624 338.928C182.576 338.976 182.512 339 182.432 339H181.832ZM194.055 339.12C193.615 339.12 193.235 339.044 192.915 338.892C192.595 338.732 192.331 338.52 192.123 338.256C191.923 337.984 191.771 337.676 191.667 337.332C191.571 336.988 191.515 336.624 191.499 336.24C191.491 336.112 191.487 335.992 191.487 335.88C191.487 335.768 191.491 335.648 191.499 335.52C191.515 335.144 191.571 334.784 191.667 334.44C191.771 334.096 191.923 333.788 192.123 333.516C192.331 333.244 192.595 333.032 192.915 332.88C193.235 332.72 193.615 332.64 194.055 332.64C194.527 332.64 194.919 332.724 195.231 332.892C195.543 333.06 195.799 333.268 195.999 333.516V330.756C195.999 330.676 196.023 330.612 196.071 330.564C196.127 330.508 196.195 330.48 196.275 330.48H196.851C196.931 330.48 196.995 330.508 197.043 330.564C197.099 330.612 197.127 330.676 197.127 330.756V338.724C197.127 338.804 197.099 338.872 197.043 338.928C196.995 338.976 196.931 339 196.851 339H196.311C196.223 339 196.155 338.976 196.107 338.928C196.059 338.872 196.035 338.804 196.035 338.724V338.22C195.835 338.476 195.575 338.692 195.255 338.868C194.935 339.036 194.535 339.12 194.055 339.12ZM194.307 338.148C194.707 338.148 195.027 338.056 195.267 337.872C195.507 337.688 195.687 337.456 195.807 337.176C195.927 336.888 195.991 336.596 195.999 336.3C196.007 336.172 196.011 336.02 196.011 335.844C196.011 335.66 196.007 335.504 195.999 335.376C195.991 335.096 195.923 334.82 195.795 334.548C195.675 334.276 195.491 334.052 195.243 333.876C195.003 333.7 194.691 333.612 194.307 333.612C193.899 333.612 193.575 333.704 193.335 333.888C193.095 334.064 192.923 334.3 192.819 334.596C192.715 334.884 192.655 335.196 192.639 335.532C192.631 335.764 192.631 335.996 192.639 336.228C192.655 336.564 192.715 336.88 192.819 337.176C192.923 337.464 193.095 337.7 193.335 337.884C193.575 338.06 193.899 338.148 194.307 338.148ZM199.187 339C199.107 339 199.039 338.976 198.983 338.928C198.935 338.872 198.911 338.804 198.911 338.724V333.036C198.911 332.956 198.935 332.892 198.983 332.844C199.039 332.788 199.107 332.76 199.187 332.76H199.763C199.843 332.76 199.907 332.788 199.955 332.844C200.003 332.892 200.027 332.956 200.027 333.036V338.724C200.027 338.804 200.003 338.872 199.955 338.928C199.907 338.976 199.843 339 199.763 339H199.187ZM199.091 331.596C199.011 331.596 198.943 331.572 198.887 331.524C198.839 331.468 198.815 331.4 198.815 331.32V330.672C198.815 330.592 198.839 330.528 198.887 330.48C198.943 330.424 199.011 330.396 199.091 330.396H199.847C199.927 330.396 199.991 330.424 200.039 330.48C200.095 330.528 200.123 330.592 200.123 330.672V331.32C200.123 331.4 200.095 331.468 200.039 331.524C199.991 331.572 199.927 331.596 199.847 331.596H199.091ZM204.048 339.12C203.6 339.12 203.216 339.064 202.896 338.952C202.576 338.84 202.316 338.704 202.116 338.544C201.916 338.384 201.764 338.224 201.66 338.064C201.564 337.904 201.512 337.776 201.504 337.68C201.496 337.592 201.524 337.524 201.588 337.476C201.652 337.428 201.716 337.404 201.78 337.404H202.308C202.356 337.404 202.392 337.412 202.416 337.428C202.448 337.436 202.488 337.468 202.536 337.524C202.64 337.636 202.756 337.748 202.884 337.86C203.012 337.972 203.168 338.064 203.352 338.136C203.544 338.208 203.78 338.244 204.06 338.244C204.468 338.244 204.804 338.168 205.068 338.016C205.332 337.856 205.464 337.624 205.464 337.32C205.464 337.12 205.408 336.96 205.296 336.84C205.192 336.72 205 336.612 204.72 336.516C204.448 336.42 204.072 336.32 203.592 336.216C203.112 336.104 202.732 335.968 202.452 335.808C202.172 335.64 201.972 335.444 201.852 335.22C201.732 334.988 201.672 334.728 201.672 334.44C201.672 334.144 201.76 333.86 201.936 333.588C202.112 333.308 202.368 333.08 202.704 332.904C203.048 332.728 203.476 332.64 203.988 332.64C204.404 332.64 204.76 332.692 205.056 332.796C205.352 332.9 205.596 333.032 205.788 333.192C205.98 333.344 206.124 333.496 206.22 333.648C206.316 333.8 206.368 333.928 206.376 334.032C206.384 334.112 206.36 334.18 206.304 334.236C206.248 334.284 206.184 334.308 206.112 334.308H205.608C205.552 334.308 205.504 334.296 205.464 334.272C205.432 334.248 205.4 334.22 205.368 334.188C205.288 334.084 205.192 333.98 205.08 333.876C204.976 333.772 204.836 333.688 204.66 333.624C204.492 333.552 204.268 333.516 203.988 333.516C203.588 333.516 203.288 333.6 203.088 333.768C202.888 333.936 202.788 334.148 202.788 334.404C202.788 334.556 202.832 334.692 202.92 334.812C203.008 334.932 203.176 335.04 203.424 335.136C203.672 335.232 204.04 335.336 204.528 335.448C205.056 335.552 205.472 335.692 205.776 335.868C206.08 336.044 206.296 336.248 206.424 336.48C206.552 336.712 206.616 336.98 206.616 337.284C206.616 337.62 206.516 337.928 206.316 338.208C206.124 338.488 205.836 338.712 205.452 338.88C205.076 339.04 204.608 339.12 204.048 339.12ZM210.429 339C209.981 339 209.617 338.916 209.337 338.748C209.057 338.572 208.853 338.328 208.725 338.016C208.597 337.696 208.533 337.32 208.533 336.888V333.72H207.597C207.517 333.72 207.449 333.696 207.393 333.648C207.345 333.592 207.321 333.524 207.321 333.444V333.036C207.321 332.956 207.345 332.892 207.393 332.844C207.449 332.788 207.517 332.76 207.597 332.76H208.533V330.756C208.533 330.676 208.557 330.612 208.605 330.564C208.661 330.508 208.729 330.48 208.809 330.48H209.373C209.453 330.48 209.517 330.508 209.565 330.564C209.621 330.612 209.649 330.676 209.649 330.756V332.76H211.137C211.217 332.76 211.281 332.788 211.329 332.844C211.385 332.892 211.413 332.956 211.413 333.036V333.444C211.413 333.524 211.385 333.592 211.329 333.648C211.281 333.696 211.217 333.72 211.137 333.72H209.649V336.804C209.649 337.18 209.713 337.476 209.841 337.692C209.969 337.908 210.197 338.016 210.525 338.016H211.257C211.337 338.016 211.401 338.044 211.449 338.1C211.505 338.148 211.533 338.212 211.533 338.292V338.724C211.533 338.804 211.505 338.872 211.449 338.928C211.401 338.976 211.337 339 211.257 339H210.429ZM212.873 339C212.793 339 212.725 338.976 212.669 338.928C212.621 338.872 212.597 338.804 212.597 338.724V337.86C212.597 337.78 212.621 337.716 212.669 337.668C212.725 337.612 212.793 337.584 212.873 337.584H213.737C213.817 337.584 213.881 337.612 213.929 337.668C213.985 337.716 214.013 337.78 214.013 337.86V338.724C214.013 338.804 213.985 338.872 213.929 338.928C213.881 338.976 213.817 339 213.737 339H212.873Z" fill="#191E24"/>
<path d="M87.527 298C87.439 298 87.371 297.976 87.323 297.928C87.275 297.872 87.251 297.804 87.251 297.724V289.888C87.251 289.8 87.275 289.732 87.323 289.684C87.371 289.628 87.439 289.6 87.527 289.6H90.251C91.075 289.6 91.739 289.724 92.243 289.972C92.747 290.22 93.115 290.588 93.347 291.076C93.579 291.556 93.699 292.148 93.707 292.852C93.715 293.212 93.719 293.528 93.719 293.8C93.719 294.072 93.715 294.384 93.707 294.736C93.691 295.472 93.567 296.084 93.335 296.572C93.111 297.052 92.751 297.412 92.255 297.652C91.767 297.884 91.119 298 90.311 298H87.527ZM88.427 296.98H90.251C90.803 296.98 91.243 296.904 91.571 296.752C91.899 296.6 92.135 296.356 92.279 296.02C92.431 295.684 92.511 295.24 92.519 294.688C92.535 294.448 92.543 294.24 92.543 294.064C92.543 293.88 92.543 293.7 92.543 293.524C92.543 293.34 92.535 293.132 92.519 292.9C92.503 292.124 92.319 291.552 91.967 291.184C91.615 290.808 91.023 290.62 90.191 290.62H88.427V296.98ZM95.8005 298C95.7125 298 95.6445 297.976 95.5965 297.928C95.5485 297.872 95.5245 297.804 95.5245 297.724V289.876C95.5245 289.796 95.5485 289.732 95.5965 289.684C95.6445 289.628 95.7125 289.6 95.8005 289.6H96.4365C96.5165 289.6 96.5805 289.628 96.6285 289.684C96.6845 289.732 96.7125 289.796 96.7125 289.876V297.724C96.7125 297.804 96.6845 297.872 96.6285 297.928C96.5805 297.976 96.5165 298 96.4365 298H95.8005ZM101.506 298.12C100.81 298.12 100.226 298.016 99.7537 297.808C99.2817 297.592 98.9177 297.316 98.6617 296.98C98.4137 296.636 98.2817 296.272 98.2657 295.888C98.2657 295.824 98.2897 295.768 98.3377 295.72C98.3937 295.664 98.4577 295.636 98.5297 295.636H99.1417C99.2377 295.636 99.3097 295.66 99.3577 295.708C99.4057 295.756 99.4377 295.812 99.4537 295.876C99.4937 296.068 99.5897 296.26 99.7417 296.452C99.9017 296.636 100.122 296.792 100.402 296.92C100.69 297.04 101.058 297.1 101.506 297.1C102.194 297.1 102.698 296.98 103.018 296.74C103.346 296.492 103.51 296.164 103.51 295.756C103.51 295.476 103.422 295.252 103.246 295.084C103.078 294.908 102.818 294.752 102.466 294.616C102.114 294.48 101.658 294.332 101.098 294.172C100.514 294.004 100.03 293.82 99.6457 293.62C99.2617 293.42 98.9737 293.172 98.7817 292.876C98.5977 292.58 98.5057 292.204 98.5057 291.748C98.5057 291.316 98.6217 290.932 98.8537 290.596C99.0857 290.252 99.4177 289.98 99.8497 289.78C100.29 289.58 100.822 289.48 101.446 289.48C101.942 289.48 102.374 289.548 102.742 289.684C103.118 289.812 103.43 289.988 103.678 290.212C103.926 290.428 104.114 290.664 104.242 290.92C104.37 291.168 104.438 291.412 104.446 291.652C104.446 291.708 104.426 291.764 104.386 291.82C104.346 291.868 104.282 291.892 104.194 291.892H103.558C103.502 291.892 103.442 291.876 103.378 291.844C103.322 291.812 103.278 291.752 103.246 291.664C103.198 291.336 103.014 291.06 102.694 290.836C102.374 290.612 101.958 290.5 101.446 290.5C100.926 290.5 100.502 290.6 100.174 290.8C99.8537 291 99.6937 291.312 99.6937 291.736C99.6937 292.008 99.7697 292.236 99.9217 292.42C100.074 292.596 100.314 292.752 100.642 292.888C100.97 293.024 101.398 293.168 101.926 293.32C102.566 293.496 103.09 293.684 103.498 293.884C103.906 294.076 104.206 294.32 104.398 294.616C104.598 294.904 104.698 295.276 104.698 295.732C104.698 296.236 104.566 296.668 104.302 297.028C104.038 297.38 103.666 297.652 103.186 297.844C102.714 298.028 102.154 298.12 101.506 298.12ZM108.289 298C108.209 298 108.141 297.976 108.085 297.928C108.037 297.872 108.013 297.804 108.013 297.724V290.668H105.709C105.629 290.668 105.561 290.644 105.505 290.596C105.457 290.54 105.433 290.472 105.433 290.392V289.888C105.433 289.8 105.457 289.732 105.505 289.684C105.561 289.628 105.629 289.6 105.709 289.6H111.493C111.581 289.6 111.649 289.628 111.697 289.684C111.753 289.732 111.781 289.8 111.781 289.888V290.392C111.781 290.472 111.753 290.54 111.697 290.596C111.649 290.644 111.581 290.668 111.493 290.668H109.201V297.724C109.201 297.804 109.173 297.872 109.117 297.928C109.069 297.976 109.001 298 108.913 298H108.289ZM112.389 298C112.309 298 112.241 297.976 112.185 297.928C112.137 297.872 112.113 297.804 112.113 297.724V296.86C112.113 296.78 112.137 296.716 112.185 296.668C112.241 296.612 112.309 296.584 112.389 296.584H113.253C113.333 296.584 113.397 296.612 113.445 296.668C113.501 296.716 113.529 296.78 113.529 296.86V297.724C113.529 297.804 113.501 297.872 113.445 297.928C113.397 297.976 113.333 298 113.253 298H112.389ZM115.46 293.368C115.38 293.368 115.316 293.344 115.268 293.296C115.22 293.248 115.196 293.184 115.196 293.104V292.696C115.196 292.616 115.22 292.552 115.268 292.504C115.316 292.456 115.38 292.432 115.46 292.432H120.032C120.112 292.432 120.176 292.456 120.224 292.504C120.28 292.552 120.308 292.616 120.308 292.696V293.104C120.308 293.184 120.28 293.248 120.224 293.296C120.176 293.344 120.112 293.368 120.032 293.368H115.46ZM115.46 296.368C115.38 296.368 115.316 296.344 115.268 296.296C115.22 296.248 115.196 296.184 115.196 296.104V295.696C115.196 295.616 115.22 295.552 115.268 295.504C115.316 295.456 115.38 295.432 115.46 295.432H120.032C120.112 295.432 120.176 295.456 120.224 295.504C120.28 295.552 120.308 295.616 120.308 295.696V296.104C120.308 296.184 120.28 296.248 120.224 296.296C120.176 296.344 120.112 296.368 120.032 296.368H115.46ZM124.98 298.12C124.428 298.12 123.96 298.036 123.576 297.868C123.2 297.692 122.892 297.452 122.652 297.148C122.412 296.844 122.236 296.496 122.124 296.104C122.02 295.712 121.96 295.296 121.944 294.856C121.936 294.64 121.928 294.412 121.92 294.172C121.92 293.932 121.92 293.692 121.92 293.452C121.928 293.204 121.936 292.968 121.944 292.744C121.952 292.304 122.012 291.888 122.124 291.496C122.244 291.096 122.42 290.748 122.652 290.452C122.892 290.148 123.204 289.912 123.588 289.744C123.972 289.568 124.436 289.48 124.98 289.48C125.532 289.48 125.996 289.568 126.372 289.744C126.756 289.912 127.068 290.148 127.308 290.452C127.548 290.748 127.724 291.096 127.836 291.496C127.956 291.888 128.02 292.304 128.028 292.744C128.036 292.968 128.04 293.204 128.04 293.452C128.048 293.692 128.048 293.932 128.04 294.172C128.04 294.412 128.036 294.64 128.028 294.856C128.02 295.296 127.956 295.712 127.836 296.104C127.724 296.496 127.548 296.844 127.308 297.148C127.076 297.452 126.768 297.692 126.384 297.868C126.008 298.036 125.54 298.12 124.98 298.12ZM124.98 297.1C125.604 297.1 126.064 296.896 126.36 296.488C126.664 296.072 126.82 295.508 126.828 294.796C126.844 294.564 126.852 294.34 126.852 294.124C126.852 293.9 126.852 293.68 126.852 293.464C126.852 293.24 126.844 293.02 126.828 292.804C126.82 292.108 126.664 291.552 126.36 291.136C126.064 290.712 125.604 290.5 124.98 290.5C124.364 290.5 123.904 290.712 123.6 291.136C123.304 291.552 123.148 292.108 123.132 292.804C123.132 293.02 123.128 293.24 123.12 293.464C123.12 293.68 123.12 293.9 123.12 294.124C123.128 294.34 123.132 294.564 123.132 294.796C123.148 295.508 123.308 296.072 123.612 296.488C123.916 296.896 124.372 297.1 124.98 297.1Z" fill="#191E24"/>
<path d="M8.88445 271C8.79645 271 8.72845 270.976 8.68045 270.928C8.63245 270.872 8.60845 270.804 8.60845 270.724V262.888C8.60845 262.8 8.63245 262.732 8.68045 262.684C8.72845 262.628 8.79645 262.6 8.88445 262.6H13.7805C13.8685 262.6 13.9365 262.628 13.9845 262.684C14.0325 262.732 14.0565 262.8 14.0565 262.888V263.368C14.0565 263.456 14.0325 263.524 13.9845 263.572C13.9365 263.62 13.8685 263.644 13.7805 263.644H9.77245V266.44H13.5405C13.6285 266.44 13.6965 266.468 13.7445 266.524C13.7925 266.572 13.8165 266.64 13.8165 266.728V267.208C13.8165 267.288 13.7925 267.356 13.7445 267.412C13.6965 267.46 13.6285 267.484 13.5405 267.484H9.77245V270.724C9.77245 270.804 9.74445 270.872 9.68845 270.928C9.64045 270.976 9.57245 271 9.48445 271H8.88445ZM18.4542 266.368C18.3742 266.368 18.3102 266.344 18.2622 266.296C18.2142 266.248 18.1902 266.184 18.1902 266.104V265.696C18.1902 265.616 18.2142 265.552 18.2622 265.504C18.3102 265.456 18.3742 265.432 18.4542 265.432H23.0262C23.1062 265.432 23.1702 265.456 23.2182 265.504C23.2742 265.552 23.3022 265.616 23.3022 265.696V266.104C23.3022 266.184 23.2742 266.248 23.2182 266.296C23.1702 266.344 23.1062 266.368 23.0262 266.368H18.4542ZM18.4542 269.368C18.3742 269.368 18.3102 269.344 18.2622 269.296C18.2142 269.248 18.1902 269.184 18.1902 269.104V268.696C18.1902 268.616 18.2142 268.552 18.2622 268.504C18.3102 268.456 18.3742 268.432 18.4542 268.432H23.0262C23.1062 268.432 23.1702 268.456 23.2182 268.504C23.2742 268.552 23.3022 268.616 23.3022 268.696V269.104C23.3022 269.184 23.2742 269.248 23.2182 269.296C23.1702 269.344 23.1062 269.368 23.0262 269.368H18.4542ZM28.2153 267.904C28.1353 267.904 28.0673 267.88 28.0113 267.832C27.9633 267.776 27.9393 267.708 27.9393 267.628V267.172C27.9393 267.092 27.9633 267.028 28.0113 266.98C28.0673 266.924 28.1353 266.896 28.2153 266.896H31.8153C31.8953 266.896 31.9593 266.924 32.0073 266.98C32.0633 267.028 32.0913 267.092 32.0913 267.172V267.628C32.0913 267.708 32.0633 267.776 32.0073 267.832C31.9593 267.88 31.8953 267.904 31.8153 267.904H28.2153ZM36.4569 271.12C35.7609 271.12 35.1769 271.016 34.7049 270.808C34.2329 270.592 33.8689 270.316 33.6129 269.98C33.3649 269.636 33.2329 269.272 33.2169 268.888C33.2169 268.824 33.2409 268.768 33.2889 268.72C33.3449 268.664 33.4089 268.636 33.4809 268.636H34.0929C34.1889 268.636 34.2609 268.66 34.3089 268.708C34.3569 268.756 34.3889 268.812 34.4049 268.876C34.4449 269.068 34.5409 269.26 34.6929 269.452C34.8529 269.636 35.0729 269.792 35.3529 269.92C35.6409 270.04 36.0089 270.1 36.4569 270.1C37.1449 270.1 37.6489 269.98 37.9689 269.74C38.2969 269.492 38.4609 269.164 38.4609 268.756C38.4609 268.476 38.3729 268.252 38.1969 268.084C38.0289 267.908 37.7689 267.752 37.4169 267.616C37.0649 267.48 36.6089 267.332 36.0489 267.172C35.4649 267.004 34.9809 266.82 34.5969 266.62C34.2129 266.42 33.9249 266.172 33.7329 265.876C33.5489 265.58 33.4569 265.204 33.4569 264.748C33.4569 264.316 33.5729 263.932 33.8049 263.596C34.0369 263.252 34.3689 262.98 34.8009 262.78C35.2409 262.58 35.7729 262.48 36.3969 262.48C36.8929 262.48 37.3249 262.548 37.6929 262.684C38.0689 262.812 38.3809 262.988 38.6289 263.212C38.8769 263.428 39.0649 263.664 39.1929 263.92C39.3209 264.168 39.3889 264.412 39.3969 264.652C39.3969 264.708 39.3769 264.764 39.3369 264.82C39.2969 264.868 39.2329 264.892 39.1449 264.892H38.5089C38.4529 264.892 38.3929 264.876 38.3289 264.844C38.2729 264.812 38.2289 264.752 38.1969 264.664C38.1489 264.336 37.9649 264.06 37.6449 263.836C37.3249 263.612 36.9089 263.5 36.3969 263.5C35.8769 263.5 35.4529 263.6 35.1249 263.8C34.8049 264 34.6449 264.312 34.6449 264.736C34.6449 265.008 34.7209 265.236 34.8729 265.42C35.0249 265.596 35.2649 265.752 35.5929 265.888C35.9209 266.024 36.3489 266.168 36.8769 266.32C37.5169 266.496 38.0409 266.684 38.4489 266.884C38.8569 267.076 39.1569 267.32 39.3489 267.616C39.5489 267.904 39.6489 268.276 39.6489 268.732C39.6489 269.236 39.5169 269.668 39.2529 270.028C38.9889 270.38 38.6169 270.652 38.1369 270.844C37.6649 271.028 37.1049 271.12 36.4569 271.12ZM43.5497 271.12C42.7257 271.12 42.0697 270.868 41.5817 270.364C41.0937 269.852 40.8257 269.156 40.7777 268.276C40.7697 268.172 40.7657 268.04 40.7657 267.88C40.7657 267.712 40.7697 267.576 40.7777 267.472C40.8097 266.904 40.9417 266.408 41.1737 265.984C41.4057 265.552 41.7217 265.22 42.1217 264.988C42.5297 264.756 43.0057 264.64 43.5497 264.64C44.1577 264.64 44.6657 264.768 45.0737 265.024C45.4897 265.28 45.8057 265.644 46.0217 266.116C46.2377 266.588 46.3457 267.14 46.3457 267.772V267.976C46.3457 268.064 46.3177 268.132 46.2617 268.18C46.2137 268.228 46.1497 268.252 46.0697 268.252H41.9177C41.9177 268.26 41.9177 268.276 41.9177 268.3C41.9177 268.324 41.9177 268.344 41.9177 268.36C41.9337 268.688 42.0057 268.996 42.1337 269.284C42.2617 269.564 42.4457 269.792 42.6857 269.968C42.9257 270.144 43.2137 270.232 43.5497 270.232C43.8377 270.232 44.0777 270.188 44.2697 270.1C44.4617 270.012 44.6177 269.916 44.7377 269.812C44.8577 269.7 44.9377 269.616 44.9777 269.56C45.0497 269.456 45.1057 269.396 45.1457 269.38C45.1857 269.356 45.2497 269.344 45.3377 269.344H45.9137C45.9937 269.344 46.0577 269.368 46.1057 269.416C46.1617 269.456 46.1857 269.516 46.1777 269.596C46.1697 269.716 46.1057 269.864 45.9857 270.04C45.8657 270.208 45.6937 270.376 45.4697 270.544C45.2457 270.712 44.9737 270.852 44.6537 270.964C44.3337 271.068 43.9657 271.12 43.5497 271.12ZM41.9177 267.424H45.2057V267.388C45.2057 267.028 45.1377 266.708 45.0017 266.428C44.8737 266.148 44.6857 265.928 44.4377 265.768C44.1897 265.6 43.8937 265.516 43.5497 265.516C43.2057 265.516 42.9097 265.6 42.6617 265.768C42.4217 265.928 42.2377 266.148 42.1097 266.428C41.9817 266.708 41.9177 267.028 41.9177 267.388V267.424ZM48.0686 273.28C47.9886 273.28 47.9206 273.252 47.8646 273.196C47.8166 273.148 47.7926 273.084 47.7926 273.004V265.036C47.7926 264.956 47.8166 264.892 47.8646 264.844C47.9206 264.788 47.9886 264.76 48.0686 264.76H48.6206C48.7006 264.76 48.7646 264.788 48.8126 264.844C48.8686 264.892 48.8966 264.956 48.8966 265.036V265.564C49.0886 265.3 49.3446 265.08 49.6646 264.904C49.9846 264.728 50.3846 264.64 50.8646 264.64C51.3126 264.64 51.6926 264.716 52.0046 264.868C52.3246 265.02 52.5846 265.228 52.7846 265.492C52.9926 265.756 53.1486 266.056 53.2526 266.392C53.3566 266.728 53.4126 267.088 53.4206 267.472C53.4286 267.6 53.4326 267.736 53.4326 267.88C53.4326 268.024 53.4286 268.16 53.4206 268.288C53.4126 268.664 53.3566 269.024 53.2526 269.368C53.1486 269.704 52.9926 270.004 52.7846 270.268C52.5846 270.524 52.3246 270.732 52.0046 270.892C51.6926 271.044 51.3126 271.12 50.8646 271.12C50.4006 271.12 50.0086 271.036 49.6886 270.868C49.3766 270.692 49.1206 270.476 48.9206 270.22V273.004C48.9206 273.084 48.8966 273.148 48.8486 273.196C48.8006 273.252 48.7326 273.28 48.6446 273.28H48.0686ZM50.6126 270.148C51.0286 270.148 51.3526 270.06 51.5846 269.884C51.8246 269.7 51.9966 269.464 52.1006 269.176C52.2046 268.88 52.2646 268.564 52.2806 268.228C52.2886 267.996 52.2886 267.764 52.2806 267.532C52.2646 267.196 52.2046 266.884 52.1006 266.596C51.9966 266.3 51.8246 266.064 51.5846 265.888C51.3526 265.704 51.0286 265.612 50.6126 265.612C50.2206 265.612 49.9006 265.704 49.6526 265.888C49.4126 266.072 49.2326 266.308 49.1126 266.596C49.0006 266.876 48.9366 267.164 48.9206 267.46C48.9126 267.588 48.9086 267.74 48.9086 267.916C48.9086 268.092 48.9126 268.248 48.9206 268.384C48.9286 268.664 48.9926 268.94 49.1126 269.212C49.2406 269.484 49.4286 269.708 49.6766 269.884C49.9246 270.06 50.2366 270.148 50.6126 270.148ZM55.0038 271C54.9238 271 54.8558 270.976 54.7998 270.928C54.7518 270.872 54.7278 270.804 54.7278 270.724V269.86C54.7278 269.78 54.7518 269.716 54.7998 269.668C54.8558 269.612 54.9238 269.584 55.0038 269.584H55.8678C55.9478 269.584 56.0118 269.612 56.0598 269.668C56.1158 269.716 56.1438 269.78 56.1438 269.86V270.724C56.1438 270.804 56.1158 270.872 56.0598 270.928C56.0118 270.976 55.9478 271 55.8678 271H55.0038ZM61.2087 271C61.1207 271 61.0527 270.976 61.0047 270.928C60.9567 270.872 60.9327 270.804 60.9327 270.724V262.888C60.9327 262.8 60.9567 262.732 61.0047 262.684C61.0527 262.628 61.1207 262.6 61.2087 262.6H66.1047C66.1927 262.6 66.2607 262.628 66.3087 262.684C66.3567 262.732 66.3807 262.8 66.3807 262.888V263.368C66.3807 263.456 66.3567 263.524 66.3087 263.572C66.2607 263.62 66.1927 263.644 66.1047 263.644H62.0967V266.44H65.8647C65.9527 266.44 66.0207 266.468 66.0687 266.524C66.1167 266.572 66.1407 266.64 66.1407 266.728V267.208C66.1407 267.288 66.1167 267.356 66.0687 267.412C66.0207 267.46 65.9527 267.484 65.8647 267.484H62.0967V270.724C62.0967 270.804 62.0687 270.872 62.0127 270.928C61.9647 270.976 61.8967 271 61.8087 271H61.2087ZM70.2116 271.12C69.6036 271.12 69.0956 271.004 68.6876 270.772C68.2796 270.54 67.9676 270.22 67.7516 269.812C67.5356 269.396 67.4156 268.924 67.3916 268.396C67.3836 268.26 67.3796 268.088 67.3796 267.88C67.3796 267.664 67.3836 267.492 67.3916 267.364C67.4156 266.828 67.5356 266.356 67.7516 265.948C67.9756 265.54 68.2916 265.22 68.6996 264.988C69.1076 264.756 69.6116 264.64 70.2116 264.64C70.8116 264.64 71.3156 264.756 71.7236 264.988C72.1316 265.22 72.4436 265.54 72.6596 265.948C72.8836 266.356 73.0076 266.828 73.0316 267.364C73.0396 267.492 73.0436 267.664 73.0436 267.88C73.0436 268.088 73.0396 268.26 73.0316 268.396C73.0076 268.924 72.8876 269.396 72.6716 269.812C72.4556 270.22 72.1436 270.54 71.7356 270.772C71.3276 271.004 70.8196 271.12 70.2116 271.12ZM70.2116 270.196C70.7076 270.196 71.1036 270.04 71.3996 269.728C71.6956 269.408 71.8556 268.944 71.8796 268.336C71.8876 268.216 71.8916 268.064 71.8916 267.88C71.8916 267.696 71.8876 267.544 71.8796 267.424C71.8556 266.816 71.6956 266.356 71.3996 266.044C71.1036 265.724 70.7076 265.564 70.2116 265.564C69.7156 265.564 69.3156 265.724 69.0116 266.044C68.7156 266.356 68.5596 266.816 68.5436 267.424C68.5356 267.544 68.5316 267.696 68.5316 267.88C68.5316 268.064 68.5356 268.216 68.5436 268.336C68.5596 268.944 68.7156 269.408 69.0116 269.728C69.3156 270.04 69.7156 270.196 70.2116 270.196ZM74.8222 271C74.7422 271 74.6742 270.976 74.6182 270.928C74.5702 270.872 74.5462 270.804 74.5462 270.724V265.048C74.5462 264.968 74.5702 264.9 74.6182 264.844C74.6742 264.788 74.7422 264.76 74.8222 264.76H75.3742C75.4542 264.76 75.5222 264.788 75.5782 264.844C75.6342 264.9 75.6622 264.968 75.6622 265.048V265.576C75.8222 265.304 76.0422 265.1 76.3222 264.964C76.6022 264.828 76.9382 264.76 77.3302 264.76H77.8102C77.8902 264.76 77.9542 264.788 78.0022 264.844C78.0502 264.892 78.0742 264.956 78.0742 265.036V265.528C78.0742 265.608 78.0502 265.672 78.0022 265.72C77.9542 265.768 77.8902 265.792 77.8102 265.792H77.0902C76.6582 265.792 76.3182 265.92 76.0702 266.176C75.8222 266.424 75.6982 266.764 75.6982 267.196V270.724C75.6982 270.804 75.6702 270.872 75.6142 270.928C75.5582 270.976 75.4902 271 75.4102 271H74.8222ZM81.5076 271.12C80.9396 271.12 80.4476 271.012 80.0316 270.796C79.6236 270.572 79.3076 270.256 79.0836 269.848C78.8596 269.432 78.7396 268.936 78.7236 268.36C78.7156 268.24 78.7116 268.08 78.7116 267.88C78.7116 267.68 78.7156 267.52 78.7236 267.4C78.7396 266.824 78.8596 266.332 79.0836 265.924C79.3076 265.508 79.6236 265.192 80.0316 264.976C80.4476 264.752 80.9396 264.64 81.5076 264.64C81.9716 264.64 82.3676 264.704 82.6956 264.832C83.0316 264.96 83.3076 265.124 83.5236 265.324C83.7396 265.524 83.8996 265.74 84.0036 265.972C84.1156 266.204 84.1756 266.424 84.1836 266.632C84.1916 266.712 84.1676 266.776 84.1116 266.824C84.0556 266.872 83.9876 266.896 83.9076 266.896H83.3316C83.2516 266.896 83.1916 266.88 83.1516 266.848C83.1116 266.808 83.0716 266.744 83.0316 266.656C82.8876 266.264 82.6916 265.988 82.4436 265.828C82.1956 265.668 81.8876 265.588 81.5196 265.588C81.0396 265.588 80.6476 265.736 80.3436 266.032C80.0476 266.328 79.8876 266.804 79.8636 267.46C79.8556 267.748 79.8556 268.028 79.8636 268.3C79.8876 268.964 80.0476 269.444 80.3436 269.74C80.6476 270.028 81.0396 270.172 81.5196 270.172C81.8876 270.172 82.1956 270.092 82.4436 269.932C82.6916 269.772 82.8876 269.496 83.0316 269.104C83.0716 269.016 83.1116 268.956 83.1516 268.924C83.1916 268.884 83.2516 268.864 83.3316 268.864H83.9076C83.9876 268.864 84.0556 268.888 84.1116 268.936C84.1676 268.984 84.1916 269.048 84.1836 269.128C84.1756 269.296 84.1396 269.468 84.0756 269.644C84.0116 269.82 83.9076 270 83.7636 270.184C83.6276 270.36 83.4556 270.52 83.2476 270.664C83.0396 270.8 82.7876 270.912 82.4916 271C82.2036 271.08 81.8756 271.12 81.5076 271.12ZM88.0927 271.12C87.2687 271.12 86.6127 270.868 86.1247 270.364C85.6367 269.852 85.3687 269.156 85.3207 268.276C85.3127 268.172 85.3087 268.04 85.3087 267.88C85.3087 267.712 85.3127 267.576 85.3207 267.472C85.3527 266.904 85.4847 266.408 85.7167 265.984C85.9487 265.552 86.2647 265.22 86.6647 264.988C87.0727 264.756 87.5487 264.64 88.0927 264.64C88.7007 264.64 89.2087 264.768 89.6167 265.024C90.0327 265.28 90.3487 265.644 90.5647 266.116C90.7807 266.588 90.8887 267.14 90.8887 267.772V267.976C90.8887 268.064 90.8607 268.132 90.8047 268.18C90.7567 268.228 90.6927 268.252 90.6127 268.252H86.4607C86.4607 268.26 86.4607 268.276 86.4607 268.3C86.4607 268.324 86.4607 268.344 86.4607 268.36C86.4767 268.688 86.5487 268.996 86.6767 269.284C86.8047 269.564 86.9887 269.792 87.2287 269.968C87.4687 270.144 87.7567 270.232 88.0927 270.232C88.3807 270.232 88.6207 270.188 88.8127 270.1C89.0047 270.012 89.1607 269.916 89.2807 269.812C89.4007 269.7 89.4807 269.616 89.5207 269.56C89.5927 269.456 89.6487 269.396 89.6887 269.38C89.7287 269.356 89.7927 269.344 89.8807 269.344H90.4567C90.5367 269.344 90.6007 269.368 90.6487 269.416C90.7047 269.456 90.7287 269.516 90.7207 269.596C90.7127 269.716 90.6487 269.864 90.5287 270.04C90.4087 270.208 90.2367 270.376 90.0127 270.544C89.7887 270.712 89.5167 270.852 89.1967 270.964C88.8767 271.068 88.5087 271.12 88.0927 271.12ZM86.4607 267.424H89.7487V267.388C89.7487 267.028 89.6807 266.708 89.5447 266.428C89.4167 266.148 89.2287 265.928 88.9807 265.768C88.7327 265.6 88.4367 265.516 88.0927 265.516C87.7487 265.516 87.4527 265.6 87.2047 265.768C86.9647 265.928 86.7807 266.148 86.6527 266.428C86.5247 266.708 86.4607 267.028 86.4607 267.388V267.424Z" fill="#191E24"/>
<path d="M25.7067 14C25.6187 14 25.5507 13.976 25.5027 13.928C25.4547 13.872 25.4307 13.804 25.4307 13.724V5.888C25.4307 5.8 25.4547 5.732 25.5027 5.684C25.5507 5.628 25.6187 5.6 25.7067 5.6H30.6027C30.6907 5.6 30.7587 5.628 30.8067 5.684C30.8547 5.732 30.8787 5.8 30.8787 5.888V6.368C30.8787 6.456 30.8547 6.524 30.8067 6.572C30.7587 6.62 30.6907 6.644 30.6027 6.644H26.5947V9.44H30.3627C30.4507 9.44 30.5187 9.468 30.5667 9.524C30.6147 9.572 30.6387 9.64 30.6387 9.728V10.208C30.6387 10.288 30.6147 10.356 30.5667 10.412C30.5187 10.46 30.4507 10.484 30.3627 10.484H26.5947V13.724C26.5947 13.804 26.5667 13.872 26.5107 13.928C26.4627 13.976 26.3947 14 26.3067 14H25.7067ZM35.2764 9.368C35.1964 9.368 35.1324 9.344 35.0844 9.296C35.0364 9.248 35.0124 9.184 35.0124 9.104V8.696C35.0124 8.616 35.0364 8.552 35.0844 8.504C35.1324 8.456 35.1964 8.432 35.2764 8.432H39.8484C39.9284 8.432 39.9924 8.456 40.0404 8.504C40.0964 8.552 40.1244 8.616 40.1244 8.696V9.104C40.1244 9.184 40.0964 9.248 40.0404 9.296C39.9924 9.344 39.9284 9.368 39.8484 9.368H35.2764ZM35.2764 12.368C35.1964 12.368 35.1324 12.344 35.0844 12.296C35.0364 12.248 35.0124 12.184 35.0124 12.104V11.696C35.0124 11.616 35.0364 11.552 35.0844 11.504C35.1324 11.456 35.1964 11.432 35.2764 11.432H39.8484C39.9284 11.432 39.9924 11.456 40.0404 11.504C40.0964 11.552 40.1244 11.616 40.1244 11.696V12.104C40.1244 12.184 40.0964 12.248 40.0404 12.296C39.9924 12.344 39.9284 12.368 39.8484 12.368H35.2764ZM44.0972 14C44.0332 14 43.9772 13.976 43.9292 13.928C43.8812 13.88 43.8572 13.824 43.8572 13.76C43.8572 13.72 43.8612 13.676 43.8692 13.628L46.8452 5.864C46.8772 5.784 46.9212 5.72 46.9772 5.672C47.0332 5.624 47.1172 5.6 47.2292 5.6H48.0452C48.1492 5.6 48.2292 5.624 48.2852 5.672C48.3492 5.72 48.3972 5.784 48.4292 5.864L51.3932 13.628C51.4092 13.676 51.4172 13.72 51.4172 13.76C51.4172 13.824 51.3932 13.88 51.3452 13.928C51.2972 13.976 51.2412 14 51.1772 14H50.5652C50.4692 14 50.3972 13.976 50.3492 13.928C50.3092 13.88 50.2812 13.836 50.2652 13.796L49.6052 12.092H45.6692L45.0092 13.796C45.0012 13.836 44.9732 13.88 44.9252 13.928C44.8772 13.976 44.8052 14 44.7092 14H44.0972ZM46.0172 11.06H49.2572L47.6372 6.8L46.0172 11.06ZM54.6521 14C54.2041 14 53.8401 13.916 53.5601 13.748C53.2801 13.572 53.0761 13.328 52.9481 13.016C52.8201 12.696 52.7561 12.32 52.7561 11.888V8.72H51.8201C51.7401 8.72 51.6721 8.696 51.6161 8.648C51.5681 8.592 51.5441 8.524 51.5441 8.444V8.036C51.5441 7.956 51.5681 7.892 51.6161 7.844C51.6721 7.788 51.7401 7.76 51.8201 7.76H52.7561V5.756C52.7561 5.676 52.7801 5.612 52.8281 5.564C52.8841 5.508 52.9521 5.48 53.0321 5.48H53.5961C53.6761 5.48 53.7401 5.508 53.7881 5.564C53.8441 5.612 53.8721 5.676 53.8721 5.756V7.76H55.3601C55.4401 7.76 55.5041 7.788 55.5521 7.844C55.6081 7.892 55.6361 7.956 55.6361 8.036V8.444C55.6361 8.524 55.6081 8.592 55.5521 8.648C55.5041 8.696 55.4401 8.72 55.3601 8.72H53.8721V11.804C53.8721 12.18 53.9361 12.476 54.0641 12.692C54.1921 12.908 54.4201 13.016 54.7481 13.016H55.4801C55.5601 13.016 55.6241 13.044 55.6721 13.1C55.7281 13.148 55.7561 13.212 55.7561 13.292V13.724C55.7561 13.804 55.7281 13.872 55.6721 13.928C55.6241 13.976 55.5601 14 55.4801 14H54.6521ZM59.3396 14C58.8916 14 58.5276 13.916 58.2476 13.748C57.9676 13.572 57.7636 13.328 57.6356 13.016C57.5076 12.696 57.4436 12.32 57.4436 11.888V8.72H56.5076C56.4276 8.72 56.3596 8.696 56.3036 8.648C56.2556 8.592 56.2316 8.524 56.2316 8.444V8.036C56.2316 7.956 56.2556 7.892 56.3036 7.844C56.3596 7.788 56.4276 7.76 56.5076 7.76H57.4436V5.756C57.4436 5.676 57.4676 5.612 57.5156 5.564C57.5716 5.508 57.6396 5.48 57.7196 5.48H58.2836C58.3636 5.48 58.4276 5.508 58.4756 5.564C58.5316 5.612 58.5596 5.676 58.5596 5.756V7.76H60.0476C60.1276 7.76 60.1916 7.788 60.2396 7.844C60.2956 7.892 60.3236 7.956 60.3236 8.036V8.444C60.3236 8.524 60.2956 8.592 60.2396 8.648C60.1916 8.696 60.1276 8.72 60.0476 8.72H58.5596V11.804C58.5596 12.18 58.6236 12.476 58.7516 12.692C58.8796 12.908 59.1076 13.016 59.4356 13.016H60.1676C60.2476 13.016 60.3116 13.044 60.3596 13.1C60.4156 13.148 60.4436 13.212 60.4436 13.292V13.724C60.4436 13.804 60.4156 13.872 60.3596 13.928C60.3116 13.976 60.2476 14 60.1676 14H59.3396ZM61.7831 14C61.7031 14 61.6351 13.976 61.5791 13.928C61.5311 13.872 61.5071 13.804 61.5071 13.724V12.86C61.5071 12.78 61.5311 12.716 61.5791 12.668C61.6351 12.612 61.7031 12.584 61.7831 12.584H62.6471C62.7271 12.584 62.7911 12.612 62.8391 12.668C62.8951 12.716 62.9231 12.78 62.9231 12.86V13.724C62.9231 13.804 62.8951 13.872 62.8391 13.928C62.7911 13.976 62.7271 14 62.6471 14H61.7831ZM68.2333 14C68.1533 14 68.0853 13.976 68.0293 13.928C67.9813 13.872 67.9573 13.804 67.9573 13.724V8.72H66.9373C66.8573 8.72 66.7893 8.696 66.7333 8.648C66.6853 8.592 66.6613 8.524 66.6613 8.444V8.036C66.6613 7.956 66.6853 7.892 66.7333 7.844C66.7893 7.788 66.8573 7.76 66.9373 7.76H67.9573V7.16C67.9573 6.752 68.0253 6.396 68.1613 6.092C68.2973 5.78 68.5133 5.54 68.8093 5.372C69.1133 5.204 69.5173 5.12 70.0213 5.12H70.7413C70.8213 5.12 70.8853 5.148 70.9333 5.204C70.9813 5.252 71.0053 5.316 71.0053 5.396V5.804C71.0053 5.884 70.9813 5.952 70.9333 6.008C70.8853 6.056 70.8213 6.08 70.7413 6.08H70.0453C69.6693 6.08 69.4133 6.18 69.2773 6.38C69.1413 6.572 69.0733 6.852 69.0733 7.22V7.76H70.6213C70.7013 7.76 70.7653 7.788 70.8133 7.844C70.8613 7.892 70.8853 7.956 70.8853 8.036V8.444C70.8853 8.524 70.8613 8.592 70.8133 8.648C70.7653 8.696 70.7013 8.72 70.6213 8.72H69.0733V13.724C69.0733 13.804 69.0453 13.872 68.9893 13.928C68.9413 13.976 68.8773 14 68.7973 14H68.2333ZM74.3893 14.12C73.7813 14.12 73.2733 14.004 72.8653 13.772C72.4573 13.54 72.1453 13.22 71.9293 12.812C71.7133 12.396 71.5933 11.924 71.5693 11.396C71.5613 11.26 71.5573 11.088 71.5573 10.88C71.5573 10.664 71.5613 10.492 71.5693 10.364C71.5933 9.828 71.7133 9.356 71.9293 8.948C72.1533 8.54 72.4693 8.22 72.8773 7.988C73.2853 7.756 73.7893 7.64 74.3893 7.64C74.9893 7.64 75.4933 7.756 75.9013 7.988C76.3093 8.22 76.6213 8.54 76.8373 8.948C77.0613 9.356 77.1853 9.828 77.2093 10.364C77.2173 10.492 77.2213 10.664 77.2213 10.88C77.2213 11.088 77.2173 11.26 77.2093 11.396C77.1853 11.924 77.0653 12.396 76.8493 12.812C76.6333 13.22 76.3213 13.54 75.9133 13.772C75.5053 14.004 74.9973 14.12 74.3893 14.12ZM74.3893 13.196C74.8853 13.196 75.2813 13.04 75.5773 12.728C75.8733 12.408 76.0333 11.944 76.0573 11.336C76.0653 11.216 76.0693 11.064 76.0693 10.88C76.0693 10.696 76.0653 10.544 76.0573 10.424C76.0333 9.816 75.8733 9.356 75.5773 9.044C75.2813 8.724 74.8853 8.564 74.3893 8.564C73.8933 8.564 73.4933 8.724 73.1893 9.044C72.8933 9.356 72.7373 9.816 72.7213 10.424C72.7133 10.544 72.7093 10.696 72.7093 10.88C72.7093 11.064 72.7133 11.216 72.7213 11.336C72.7373 11.944 72.8933 12.408 73.1893 12.728C73.4933 13.04 73.8933 13.196 74.3893 13.196ZM78.9999 14C78.9199 14 78.8519 13.976 78.7959 13.928C78.7479 13.872 78.7239 13.804 78.7239 13.724V8.048C78.7239 7.968 78.7479 7.9 78.7959 7.844C78.8519 7.788 78.9199 7.76 78.9999 7.76H79.5519C79.6319 7.76 79.6999 7.788 79.7559 7.844C79.8119 7.9 79.8399 7.968 79.8399 8.048V8.576C79.9999 8.304 80.2199 8.1 80.4999 7.964C80.7799 7.828 81.1159 7.76 81.5079 7.76H81.9879C82.0679 7.76 82.1319 7.788 82.1799 7.844C82.2279 7.892 82.2519 7.956 82.2519 8.036V8.528C82.2519 8.608 82.2279 8.672 82.1799 8.72C82.1319 8.768 82.0679 8.792 81.9879 8.792H81.2679C80.8359 8.792 80.4959 8.92 80.2479 9.176C79.9999 9.424 79.8759 9.764 79.8759 10.196V13.724C79.8759 13.804 79.8479 13.872 79.7919 13.928C79.7359 13.976 79.6679 14 79.5879 14H78.9999ZM85.6853 14.12C85.1173 14.12 84.6253 14.012 84.2093 13.796C83.8013 13.572 83.4853 13.256 83.2613 12.848C83.0373 12.432 82.9173 11.936 82.9013 11.36C82.8933 11.24 82.8893 11.08 82.8893 10.88C82.8893 10.68 82.8933 10.52 82.9013 10.4C82.9173 9.824 83.0373 9.332 83.2613 8.924C83.4853 8.508 83.8013 8.192 84.2093 7.976C84.6253 7.752 85.1173 7.64 85.6853 7.64C86.1493 7.64 86.5453 7.704 86.8733 7.832C87.2093 7.96 87.4853 8.124 87.7013 8.324C87.9173 8.524 88.0773 8.74 88.1813 8.972C88.2933 9.204 88.3533 9.424 88.3613 9.632C88.3693 9.712 88.3453 9.776 88.2893 9.824C88.2333 9.872 88.1653 9.896 88.0853 9.896H87.5093C87.4293 9.896 87.3693 9.88 87.3293 9.848C87.2893 9.808 87.2493 9.744 87.2093 9.656C87.0653 9.264 86.8693 8.988 86.6213 8.828C86.3733 8.668 86.0653 8.588 85.6973 8.588C85.2173 8.588 84.8253 8.736 84.5213 9.032C84.2253 9.328 84.0653 9.804 84.0413 10.46C84.0333 10.748 84.0333 11.028 84.0413 11.3C84.0653 11.964 84.2253 12.444 84.5213 12.74C84.8253 13.028 85.2173 13.172 85.6973 13.172C86.0653 13.172 86.3733 13.092 86.6213 12.932C86.8693 12.772 87.0653 12.496 87.2093 12.104C87.2493 12.016 87.2893 11.956 87.3293 11.924C87.3693 11.884 87.4293 11.864 87.5093 11.864H88.0853C88.1653 11.864 88.2333 11.888 88.2893 11.936C88.3453 11.984 88.3693 12.048 88.3613 12.128C88.3533 12.296 88.3173 12.468 88.2533 12.644C88.1893 12.82 88.0853 13 87.9413 13.184C87.8053 13.36 87.6333 13.52 87.4253 13.664C87.2173 13.8 86.9653 13.912 86.6693 14C86.3813 14.08 86.0533 14.12 85.6853 14.12ZM92.2704 14.12C91.4464 14.12 90.7904 13.868 90.3024 13.364C89.8144 12.852 89.5464 12.156 89.4984 11.276C89.4904 11.172 89.4864 11.04 89.4864 10.88C89.4864 10.712 89.4904 10.576 89.4984 10.472C89.5304 9.904 89.6624 9.408 89.8944 8.984C90.1264 8.552 90.4424 8.22 90.8424 7.988C91.2504 7.756 91.7264 7.64 92.2704 7.64C92.8784 7.64 93.3864 7.768 93.7944 8.024C94.2104 8.28 94.5264 8.644 94.7424 9.116C94.9584 9.588 95.0664 10.14 95.0664 10.772V10.976C95.0664 11.064 95.0384 11.132 94.9824 11.18C94.9344 11.228 94.8704 11.252 94.7904 11.252H90.6384C90.6384 11.26 90.6384 11.276 90.6384 11.3C90.6384 11.324 90.6384 11.344 90.6384 11.36C90.6544 11.688 90.7264 11.996 90.8544 12.284C90.9824 12.564 91.1664 12.792 91.4064 12.968C91.6464 13.144 91.9344 13.232 92.2704 13.232C92.5584 13.232 92.7984 13.188 92.9904 13.1C93.1824 13.012 93.3384 12.916 93.4584 12.812C93.5784 12.7 93.6584 12.616 93.6984 12.56C93.7704 12.456 93.8264 12.396 93.8664 12.38C93.9064 12.356 93.9704 12.344 94.0584 12.344H94.6344C94.7144 12.344 94.7784 12.368 94.8264 12.416C94.8824 12.456 94.9064 12.516 94.8984 12.596C94.8904 12.716 94.8264 12.864 94.7064 13.04C94.5864 13.208 94.4144 13.376 94.1904 13.544C93.9664 13.712 93.6944 13.852 93.3744 13.964C93.0544 14.068 92.6864 14.12 92.2704 14.12ZM90.6384 10.424H93.9264V10.388C93.9264 10.028 93.8584 9.708 93.7224 9.428C93.5944 9.148 93.4064 8.928 93.1584 8.768C92.9104 8.6 92.6144 8.516 92.2704 8.516C91.9264 8.516 91.6304 8.6 91.3824 8.768C91.1424 8.928 90.9584 9.148 90.8304 9.428C90.7024 9.708 90.6384 10.028 90.6384 10.388V10.424Z" fill="#191E24"/>
<path d="M61.238 131C61.15 131 61.082 130.976 61.034 130.928C60.986 130.872 60.962 130.804 60.962 130.724V122.888C60.962 122.8 60.986 122.732 61.034 122.684C61.082 122.628 61.15 122.6 61.238 122.6H66.134C66.222 122.6 66.29 122.628 66.338 122.684C66.386 122.732 66.41 122.8 66.41 122.888V123.368C66.41 123.456 66.386 123.524 66.338 123.572C66.29 123.62 66.222 123.644 66.134 123.644H62.126V126.44H65.894C65.982 126.44 66.05 126.468 66.098 126.524C66.146 126.572 66.17 126.64 66.17 126.728V127.208C66.17 127.288 66.146 127.356 66.098 127.412C66.05 127.46 65.982 127.484 65.894 127.484H62.126V130.724C62.126 130.804 62.098 130.872 62.042 130.928C61.994 130.976 61.926 131 61.838 131H61.238ZM70.8077 126.368C70.7277 126.368 70.6637 126.344 70.6157 126.296C70.5677 126.248 70.5437 126.184 70.5437 126.104V125.696C70.5437 125.616 70.5677 125.552 70.6157 125.504C70.6637 125.456 70.7277 125.432 70.8077 125.432H75.3797C75.4597 125.432 75.5237 125.456 75.5717 125.504C75.6277 125.552 75.6557 125.616 75.6557 125.696V126.104C75.6557 126.184 75.6277 126.248 75.5717 126.296C75.5237 126.344 75.4597 126.368 75.3797 126.368H70.8077ZM70.8077 129.368C70.7277 129.368 70.6637 129.344 70.6157 129.296C70.5677 129.248 70.5437 129.184 70.5437 129.104V128.696C70.5437 128.616 70.5677 128.552 70.6157 128.504C70.6637 128.456 70.7277 128.432 70.8077 128.432H75.3797C75.4597 128.432 75.5237 128.456 75.5717 128.504C75.6277 128.552 75.6557 128.616 75.6557 128.696V129.104C75.6557 129.184 75.6277 129.248 75.5717 129.296C75.5237 129.344 75.4597 129.368 75.3797 129.368H70.8077ZM83.2688 131.12C82.7168 131.12 82.2488 131.036 81.8648 130.868C81.4888 130.692 81.1808 130.452 80.9408 130.148C80.7008 129.844 80.5248 129.496 80.4128 129.104C80.3088 128.712 80.2488 128.296 80.2328 127.856C80.2248 127.64 80.2168 127.412 80.2088 127.172C80.2088 126.932 80.2088 126.692 80.2088 126.452C80.2168 126.204 80.2248 125.968 80.2328 125.744C80.2408 125.304 80.3008 124.888 80.4128 124.496C80.5328 124.096 80.7088 123.748 80.9408 123.452C81.1808 123.148 81.4928 122.912 81.8768 122.744C82.2608 122.568 82.7248 122.48 83.2688 122.48C83.8208 122.48 84.2848 122.568 84.6608 122.744C85.0448 122.912 85.3568 123.148 85.5968 123.452C85.8368 123.748 86.0128 124.096 86.1248 124.496C86.2448 124.888 86.3088 125.304 86.3168 125.744C86.3248 125.968 86.3288 126.204 86.3288 126.452C86.3368 126.692 86.3368 126.932 86.3288 127.172C86.3288 127.412 86.3248 127.64 86.3168 127.856C86.3088 128.296 86.2448 128.712 86.1248 129.104C86.0128 129.496 85.8368 129.844 85.5968 130.148C85.3648 130.452 85.0568 130.692 84.6728 130.868C84.2968 131.036 83.8288 131.12 83.2688 131.12ZM83.2688 130.1C83.8928 130.1 84.3528 129.896 84.6488 129.488C84.9528 129.072 85.1088 128.508 85.1168 127.796C85.1328 127.564 85.1408 127.34 85.1408 127.124C85.1408 126.9 85.1408 126.68 85.1408 126.464C85.1408 126.24 85.1328 126.02 85.1168 125.804C85.1088 125.108 84.9528 124.552 84.6488 124.136C84.3528 123.712 83.8928 123.5 83.2688 123.5C82.6528 123.5 82.1928 123.712 81.8888 124.136C81.5928 124.552 81.4368 125.108 81.4208 125.804C81.4208 126.02 81.4168 126.24 81.4088 126.464C81.4088 126.68 81.4088 126.9 81.4088 127.124C81.4168 127.34 81.4208 127.564 81.4208 127.796C81.4368 128.508 81.5968 129.072 81.9008 129.488C82.2048 129.896 82.6608 130.1 83.2688 130.1Z" fill="#191E24"/>
<path d="M373.65 339C373.586 339 373.53 338.976 373.482 338.928C373.434 338.88 373.41 338.824 373.41 338.76C373.41 338.72 373.414 338.676 373.422 338.628L376.398 330.864C376.43 330.784 376.474 330.72 376.53 330.672C376.586 330.624 376.67 330.6 376.782 330.6H377.598C377.702 330.6 377.782 330.624 377.838 330.672C377.902 330.72 377.95 330.784 377.982 330.864L380.946 338.628C380.962 338.676 380.97 338.72 380.97 338.76C380.97 338.824 380.946 338.88 380.898 338.928C380.85 338.976 380.794 339 380.73 339H380.118C380.022 339 379.95 338.976 379.902 338.928C379.862 338.88 379.834 338.836 379.818 338.796L379.158 337.092H375.222L374.562 338.796C374.554 338.836 374.526 338.88 374.478 338.928C374.43 338.976 374.358 339 374.262 339H373.65ZM375.57 336.06H378.81L377.19 331.8L375.57 336.06ZM384.205 339C383.757 339 383.393 338.916 383.113 338.748C382.833 338.572 382.629 338.328 382.501 338.016C382.373 337.696 382.309 337.32 382.309 336.888V333.72H381.373C381.293 333.72 381.225 333.696 381.169 333.648C381.121 333.592 381.097 333.524 381.097 333.444V333.036C381.097 332.956 381.121 332.892 381.169 332.844C381.225 332.788 381.293 332.76 381.373 332.76H382.309V330.756C382.309 330.676 382.333 330.612 382.381 330.564C382.437 330.508 382.505 330.48 382.585 330.48H383.149C383.229 330.48 383.293 330.508 383.341 330.564C383.397 330.612 383.425 330.676 383.425 330.756V332.76H384.913C384.993 332.76 385.057 332.788 385.105 332.844C385.161 332.892 385.189 332.956 385.189 333.036V333.444C385.189 333.524 385.161 333.592 385.105 333.648C385.057 333.696 384.993 333.72 384.913 333.72H383.425V336.804C383.425 337.18 383.489 337.476 383.617 337.692C383.745 337.908 383.973 338.016 384.301 338.016H385.033C385.113 338.016 385.177 338.044 385.225 338.1C385.281 338.148 385.309 338.212 385.309 338.292V338.724C385.309 338.804 385.281 338.872 385.225 338.928C385.177 338.976 385.113 339 385.033 339H384.205ZM388.892 339C388.444 339 388.08 338.916 387.8 338.748C387.52 338.572 387.316 338.328 387.188 338.016C387.06 337.696 386.996 337.32 386.996 336.888V333.72H386.06C385.98 333.72 385.912 333.696 385.856 333.648C385.808 333.592 385.784 333.524 385.784 333.444V333.036C385.784 332.956 385.808 332.892 385.856 332.844C385.912 332.788 385.98 332.76 386.06 332.76H386.996V330.756C386.996 330.676 387.02 330.612 387.068 330.564C387.124 330.508 387.192 330.48 387.272 330.48H387.836C387.916 330.48 387.98 330.508 388.028 330.564C388.084 330.612 388.112 330.676 388.112 330.756V332.76H389.6C389.68 332.76 389.744 332.788 389.792 332.844C389.848 332.892 389.876 332.956 389.876 333.036V333.444C389.876 333.524 389.848 333.592 389.792 333.648C389.744 333.696 389.68 333.72 389.6 333.72H388.112V336.804C388.112 337.18 388.176 337.476 388.304 337.692C388.432 337.908 388.66 338.016 388.988 338.016H389.72C389.8 338.016 389.864 338.044 389.912 338.1C389.968 338.148 389.996 338.212 389.996 338.292V338.724C389.996 338.804 389.968 338.872 389.912 338.928C389.864 338.976 389.8 339 389.72 339H388.892ZM391.42 339C391.34 339 391.272 338.976 391.216 338.928C391.168 338.872 391.144 338.804 391.144 338.724V333.048C391.144 332.968 391.168 332.9 391.216 332.844C391.272 332.788 391.34 332.76 391.42 332.76H391.972C392.052 332.76 392.12 332.788 392.176 332.844C392.232 332.9 392.26 332.968 392.26 333.048V333.576C392.42 333.304 392.64 333.1 392.92 332.964C393.2 332.828 393.536 332.76 393.928 332.76H394.408C394.488 332.76 394.552 332.788 394.6 332.844C394.648 332.892 394.672 332.956 394.672 333.036V333.528C394.672 333.608 394.648 333.672 394.6 333.72C394.552 333.768 394.488 333.792 394.408 333.792H393.688C393.256 333.792 392.916 333.92 392.668 334.176C392.42 334.424 392.296 334.764 392.296 335.196V338.724C392.296 338.804 392.268 338.872 392.212 338.928C392.156 338.976 392.088 339 392.008 339H391.42ZM397.349 339.12C396.949 339.12 396.585 339.04 396.257 338.88C395.929 338.72 395.665 338.504 395.465 338.232C395.265 337.96 395.165 337.652 395.165 337.308C395.165 336.756 395.389 336.316 395.837 335.988C396.285 335.66 396.869 335.444 397.589 335.34L399.377 335.088V334.74C399.377 334.356 399.265 334.056 399.041 333.84C398.825 333.624 398.469 333.516 397.973 333.516C397.613 333.516 397.321 333.588 397.097 333.732C396.881 333.876 396.729 334.06 396.641 334.284C396.593 334.404 396.509 334.464 396.389 334.464H395.849C395.761 334.464 395.693 334.44 395.645 334.392C395.605 334.336 395.585 334.272 395.585 334.2C395.585 334.08 395.629 333.932 395.717 333.756C395.813 333.58 395.957 333.408 396.149 333.24C396.341 333.072 396.585 332.932 396.881 332.82C397.185 332.7 397.553 332.64 397.985 332.64C398.465 332.64 398.869 332.704 399.197 332.832C399.525 332.952 399.781 333.116 399.965 333.324C400.157 333.532 400.293 333.768 400.373 334.032C400.461 334.296 400.505 334.564 400.505 334.836V338.724C400.505 338.804 400.477 338.872 400.421 338.928C400.373 338.976 400.309 339 400.229 339H399.677C399.589 339 399.521 338.976 399.473 338.928C399.425 338.872 399.401 338.804 399.401 338.724V338.208C399.297 338.352 399.157 338.496 398.981 338.64C398.805 338.776 398.585 338.892 398.321 338.988C398.057 339.076 397.733 339.12 397.349 339.12ZM397.601 338.22C397.929 338.22 398.229 338.152 398.501 338.016C398.773 337.872 398.985 337.652 399.137 337.356C399.297 337.06 399.377 336.688 399.377 336.24V335.904L397.985 336.108C397.417 336.188 396.989 336.324 396.701 336.516C396.413 336.7 396.269 336.936 396.269 337.224C396.269 337.448 396.333 337.636 396.461 337.788C396.597 337.932 396.765 338.04 396.965 338.112C397.173 338.184 397.385 338.22 397.601 338.22ZM404.75 339.12C404.182 339.12 403.69 339.012 403.274 338.796C402.866 338.572 402.55 338.256 402.326 337.848C402.102 337.432 401.982 336.936 401.966 336.36C401.958 336.24 401.954 336.08 401.954 335.88C401.954 335.68 401.958 335.52 401.966 335.4C401.982 334.824 402.102 334.332 402.326 333.924C402.55 333.508 402.866 333.192 403.274 332.976C403.69 332.752 404.182 332.64 404.75 332.64C405.214 332.64 405.61 332.704 405.938 332.832C406.274 332.96 406.55 333.124 406.766 333.324C406.982 333.524 407.142 333.74 407.246 333.972C407.358 334.204 407.418 334.424 407.426 334.632C407.434 334.712 407.41 334.776 407.354 334.824C407.298 334.872 407.23 334.896 407.15 334.896H406.574C406.494 334.896 406.434 334.88 406.394 334.848C406.354 334.808 406.314 334.744 406.274 334.656C406.13 334.264 405.934 333.988 405.686 333.828C405.438 333.668 405.13 333.588 404.762 333.588C404.282 333.588 403.89 333.736 403.586 334.032C403.29 334.328 403.13 334.804 403.106 335.46C403.098 335.748 403.098 336.028 403.106 336.3C403.13 336.964 403.29 337.444 403.586 337.74C403.89 338.028 404.282 338.172 404.762 338.172C405.13 338.172 405.438 338.092 405.686 337.932C405.934 337.772 406.13 337.496 406.274 337.104C406.314 337.016 406.354 336.956 406.394 336.924C406.434 336.884 406.494 336.864 406.574 336.864H407.15C407.23 336.864 407.298 336.888 407.354 336.936C407.41 336.984 407.434 337.048 407.426 337.128C407.418 337.296 407.382 337.468 407.318 337.644C407.254 337.82 407.15 338 407.006 338.184C406.87 338.36 406.698 338.52 406.49 338.664C406.282 338.8 406.03 338.912 405.734 339C405.446 339.08 405.118 339.12 404.75 339.12ZM411.287 339C410.839 339 410.475 338.916 410.195 338.748C409.915 338.572 409.711 338.328 409.583 338.016C409.455 337.696 409.391 337.32 409.391 336.888V333.72H408.455C408.375 333.72 408.307 333.696 408.251 333.648C408.203 333.592 408.179 333.524 408.179 333.444V333.036C408.179 332.956 408.203 332.892 408.251 332.844C408.307 332.788 408.375 332.76 408.455 332.76H409.391V330.756C409.391 330.676 409.415 330.612 409.463 330.564C409.519 330.508 409.587 330.48 409.667 330.48H410.231C410.311 330.48 410.375 330.508 410.423 330.564C410.479 330.612 410.507 330.676 410.507 330.756V332.76H411.995C412.075 332.76 412.139 332.788 412.187 332.844C412.243 332.892 412.271 332.956 412.271 333.036V333.444C412.271 333.524 412.243 333.592 412.187 333.648C412.139 333.696 412.075 333.72 411.995 333.72H410.507V336.804C410.507 337.18 410.571 337.476 410.699 337.692C410.827 337.908 411.055 338.016 411.383 338.016H412.115C412.195 338.016 412.259 338.044 412.307 338.1C412.363 338.148 412.391 338.212 412.391 338.292V338.724C412.391 338.804 412.363 338.872 412.307 338.928C412.259 338.976 412.195 339 412.115 339H411.287ZM413.814 339C413.734 339 413.666 338.976 413.61 338.928C413.562 338.872 413.538 338.804 413.538 338.724V333.036C413.538 332.956 413.562 332.892 413.61 332.844C413.666 332.788 413.734 332.76 413.814 332.76H414.39C414.47 332.76 414.534 332.788 414.582 332.844C414.63 332.892 414.654 332.956 414.654 333.036V338.724C414.654 338.804 414.63 338.872 414.582 338.928C414.534 338.976 414.47 339 414.39 339H413.814ZM413.718 331.596C413.638 331.596 413.57 331.572 413.514 331.524C413.466 331.468 413.442 331.4 413.442 331.32V330.672C413.442 330.592 413.466 330.528 413.514 330.48C413.57 330.424 413.638 330.396 413.718 330.396H414.474C414.554 330.396 414.618 330.424 414.666 330.48C414.722 330.528 414.75 330.592 414.75 330.672V331.32C414.75 331.4 414.722 331.468 414.666 331.524C414.618 331.572 414.554 331.596 414.474 331.596H413.718ZM419.024 339.12C418.416 339.12 417.908 339.004 417.5 338.772C417.092 338.54 416.78 338.22 416.564 337.812C416.348 337.396 416.228 336.924 416.204 336.396C416.196 336.26 416.192 336.088 416.192 335.88C416.192 335.664 416.196 335.492 416.204 335.364C416.228 334.828 416.348 334.356 416.564 333.948C416.788 333.54 417.104 333.22 417.512 332.988C417.92 332.756 418.424 332.64 419.024 332.64C419.624 332.64 420.128 332.756 420.536 332.988C420.944 333.22 421.256 333.54 421.472 333.948C421.696 334.356 421.82 334.828 421.844 335.364C421.852 335.492 421.856 335.664 421.856 335.88C421.856 336.088 421.852 336.26 421.844 336.396C421.82 336.924 421.7 337.396 421.484 337.812C421.268 338.22 420.956 338.54 420.548 338.772C420.14 339.004 419.632 339.12 419.024 339.12ZM419.024 338.196C419.52 338.196 419.916 338.04 420.212 337.728C420.508 337.408 420.668 336.944 420.692 336.336C420.7 336.216 420.704 336.064 420.704 335.88C420.704 335.696 420.7 335.544 420.692 335.424C420.668 334.816 420.508 334.356 420.212 334.044C419.916 333.724 419.52 333.564 419.024 333.564C418.528 333.564 418.128 333.724 417.824 334.044C417.528 334.356 417.372 334.816 417.356 335.424C417.348 335.544 417.344 335.696 417.344 335.88C417.344 336.064 417.348 336.216 417.356 336.336C417.372 336.944 417.528 337.408 417.824 337.728C418.128 338.04 418.528 338.196 419.024 338.196ZM423.635 339C423.555 339 423.487 338.976 423.431 338.928C423.383 338.872 423.359 338.804 423.359 338.724V333.036C423.359 332.956 423.383 332.892 423.431 332.844C423.487 332.788 423.555 332.76 423.635 332.76H424.199C424.279 332.76 424.343 332.788 424.391 332.844C424.447 332.892 424.475 332.956 424.475 333.036V333.564C424.683 333.292 424.943 333.072 425.255 332.904C425.575 332.728 425.983 332.64 426.479 332.64C426.999 332.64 427.439 332.756 427.799 332.988C428.167 333.212 428.443 333.528 428.627 333.936C428.811 334.336 428.903 334.804 428.903 335.34V338.724C428.903 338.804 428.879 338.872 428.831 338.928C428.783 338.976 428.719 339 428.639 339H428.039C427.959 339 427.891 338.976 427.835 338.928C427.787 338.872 427.763 338.804 427.763 338.724V335.4C427.763 334.84 427.627 334.404 427.355 334.092C427.083 333.772 426.683 333.612 426.155 333.612C425.659 333.612 425.259 333.772 424.955 334.092C424.659 334.404 424.511 334.84 424.511 335.4V338.724C424.511 338.804 424.483 338.872 424.427 338.928C424.379 338.976 424.315 339 424.235 339H423.635ZM435.857 339.12C435.417 339.12 435.037 339.044 434.717 338.892C434.397 338.732 434.133 338.52 433.925 338.256C433.725 337.984 433.573 337.676 433.469 337.332C433.373 336.988 433.317 336.624 433.301 336.24C433.293 336.112 433.289 335.992 433.289 335.88C433.289 335.768 433.293 335.648 433.301 335.52C433.317 335.144 433.373 334.784 433.469 334.44C433.573 334.096 433.725 333.788 433.925 333.516C434.133 333.244 434.397 333.032 434.717 332.88C435.037 332.72 435.417 332.64 435.857 332.64C436.329 332.64 436.721 332.724 437.033 332.892C437.345 333.06 437.601 333.268 437.801 333.516V330.756C437.801 330.676 437.825 330.612 437.873 330.564C437.929 330.508 437.997 330.48 438.077 330.48H438.653C438.733 330.48 438.797 330.508 438.845 330.564C438.901 330.612 438.929 330.676 438.929 330.756V338.724C438.929 338.804 438.901 338.872 438.845 338.928C438.797 338.976 438.733 339 438.653 339H438.113C438.025 339 437.957 338.976 437.909 338.928C437.861 338.872 437.837 338.804 437.837 338.724V338.22C437.637 338.476 437.377 338.692 437.057 338.868C436.737 339.036 436.337 339.12 435.857 339.12ZM436.109 338.148C436.509 338.148 436.829 338.056 437.069 337.872C437.309 337.688 437.489 337.456 437.609 337.176C437.729 336.888 437.793 336.596 437.801 336.3C437.809 336.172 437.813 336.02 437.813 335.844C437.813 335.66 437.809 335.504 437.801 335.376C437.793 335.096 437.725 334.82 437.597 334.548C437.477 334.276 437.293 334.052 437.045 333.876C436.805 333.7 436.493 333.612 436.109 333.612C435.701 333.612 435.377 333.704 435.137 333.888C434.897 334.064 434.725 334.3 434.621 334.596C434.517 334.884 434.457 335.196 434.441 335.532C434.433 335.764 434.433 335.996 434.441 336.228C434.457 336.564 434.517 336.88 434.621 337.176C434.725 337.464 434.897 337.7 435.137 337.884C435.377 338.06 435.701 338.148 436.109 338.148ZM440.99 339C440.91 339 440.842 338.976 440.786 338.928C440.738 338.872 440.714 338.804 440.714 338.724V333.036C440.714 332.956 440.738 332.892 440.786 332.844C440.842 332.788 440.91 332.76 440.99 332.76H441.566C441.646 332.76 441.71 332.788 441.758 332.844C441.806 332.892 441.83 332.956 441.83 333.036V338.724C441.83 338.804 441.806 338.872 441.758 338.928C441.71 338.976 441.646 339 441.566 339H440.99ZM440.894 331.596C440.814 331.596 440.746 331.572 440.69 331.524C440.642 331.468 440.618 331.4 440.618 331.32V330.672C440.618 330.592 440.642 330.528 440.69 330.48C440.746 330.424 440.814 330.396 440.894 330.396H441.65C441.73 330.396 441.794 330.424 441.842 330.48C441.898 330.528 441.926 330.592 441.926 330.672V331.32C441.926 331.4 441.898 331.468 441.842 331.524C441.794 331.572 441.73 331.596 441.65 331.596H440.894ZM445.851 339.12C445.403 339.12 445.019 339.064 444.699 338.952C444.379 338.84 444.119 338.704 443.919 338.544C443.719 338.384 443.567 338.224 443.463 338.064C443.367 337.904 443.315 337.776 443.307 337.68C443.299 337.592 443.327 337.524 443.391 337.476C443.455 337.428 443.519 337.404 443.583 337.404H444.111C444.159 337.404 444.195 337.412 444.219 337.428C444.251 337.436 444.291 337.468 444.339 337.524C444.443 337.636 444.559 337.748 444.687 337.86C444.815 337.972 444.971 338.064 445.155 338.136C445.347 338.208 445.583 338.244 445.863 338.244C446.271 338.244 446.607 338.168 446.871 338.016C447.135 337.856 447.267 337.624 447.267 337.32C447.267 337.12 447.211 336.96 447.099 336.84C446.995 336.72 446.803 336.612 446.523 336.516C446.251 336.42 445.875 336.32 445.395 336.216C444.915 336.104 444.535 335.968 444.255 335.808C443.975 335.64 443.775 335.444 443.655 335.22C443.535 334.988 443.475 334.728 443.475 334.44C443.475 334.144 443.563 333.86 443.739 333.588C443.915 333.308 444.171 333.08 444.507 332.904C444.851 332.728 445.279 332.64 445.791 332.64C446.207 332.64 446.563 332.692 446.859 332.796C447.155 332.9 447.399 333.032 447.591 333.192C447.783 333.344 447.927 333.496 448.023 333.648C448.119 333.8 448.171 333.928 448.179 334.032C448.187 334.112 448.163 334.18 448.107 334.236C448.051 334.284 447.987 334.308 447.915 334.308H447.411C447.355 334.308 447.307 334.296 447.267 334.272C447.235 334.248 447.203 334.22 447.171 334.188C447.091 334.084 446.995 333.98 446.883 333.876C446.779 333.772 446.639 333.688 446.463 333.624C446.295 333.552 446.071 333.516 445.791 333.516C445.391 333.516 445.091 333.6 444.891 333.768C444.691 333.936 444.591 334.148 444.591 334.404C444.591 334.556 444.635 334.692 444.723 334.812C444.811 334.932 444.979 335.04 445.227 335.136C445.475 335.232 445.843 335.336 446.331 335.448C446.859 335.552 447.275 335.692 447.579 335.868C447.883 336.044 448.099 336.248 448.227 336.48C448.355 336.712 448.419 336.98 448.419 337.284C448.419 337.62 448.319 337.928 448.119 338.208C447.927 338.488 447.639 338.712 447.255 338.88C446.879 339.04 446.411 339.12 445.851 339.12ZM452.232 339C451.784 339 451.42 338.916 451.14 338.748C450.86 338.572 450.656 338.328 450.528 338.016C450.4 337.696 450.336 337.32 450.336 336.888V333.72H449.4C449.32 333.72 449.252 333.696 449.196 333.648C449.148 333.592 449.124 333.524 449.124 333.444V333.036C449.124 332.956 449.148 332.892 449.196 332.844C449.252 332.788 449.32 332.76 449.4 332.76H450.336V330.756C450.336 330.676 450.36 330.612 450.408 330.564C450.464 330.508 450.532 330.48 450.612 330.48H451.176C451.256 330.48 451.32 330.508 451.368 330.564C451.424 330.612 451.452 330.676 451.452 330.756V332.76H452.94C453.02 332.76 453.084 332.788 453.132 332.844C453.188 332.892 453.216 332.956 453.216 333.036V333.444C453.216 333.524 453.188 333.592 453.132 333.648C453.084 333.696 453.02 333.72 452.94 333.72H451.452V336.804C451.452 337.18 451.516 337.476 451.644 337.692C451.772 337.908 452 338.016 452.328 338.016H453.06C453.14 338.016 453.204 338.044 453.252 338.1C453.308 338.148 453.336 338.212 453.336 338.292V338.724C453.336 338.804 453.308 338.872 453.252 338.928C453.204 338.976 453.14 339 453.06 339H452.232ZM456.224 339.12C455.824 339.12 455.46 339.04 455.132 338.88C454.804 338.72 454.54 338.504 454.34 338.232C454.14 337.96 454.04 337.652 454.04 337.308C454.04 336.756 454.264 336.316 454.712 335.988C455.16 335.66 455.744 335.444 456.464 335.34L458.252 335.088V334.74C458.252 334.356 458.14 334.056 457.916 333.84C457.7 333.624 457.344 333.516 456.848 333.516C456.488 333.516 456.196 333.588 455.972 333.732C455.756 333.876 455.604 334.06 455.516 334.284C455.468 334.404 455.384 334.464 455.264 334.464H454.724C454.636 334.464 454.568 334.44 454.52 334.392C454.48 334.336 454.46 334.272 454.46 334.2C454.46 334.08 454.504 333.932 454.592 333.756C454.688 333.58 454.832 333.408 455.024 333.24C455.216 333.072 455.46 332.932 455.756 332.82C456.06 332.7 456.428 332.64 456.86 332.64C457.34 332.64 457.744 332.704 458.072 332.832C458.4 332.952 458.656 333.116 458.84 333.324C459.032 333.532 459.168 333.768 459.248 334.032C459.336 334.296 459.38 334.564 459.38 334.836V338.724C459.38 338.804 459.352 338.872 459.296 338.928C459.248 338.976 459.184 339 459.104 339H458.552C458.464 339 458.396 338.976 458.348 338.928C458.3 338.872 458.276 338.804 458.276 338.724V338.208C458.172 338.352 458.032 338.496 457.856 338.64C457.68 338.776 457.46 338.892 457.196 338.988C456.932 339.076 456.608 339.12 456.224 339.12ZM456.476 338.22C456.804 338.22 457.104 338.152 457.376 338.016C457.648 337.872 457.86 337.652 458.012 337.356C458.172 337.06 458.252 336.688 458.252 336.24V335.904L456.86 336.108C456.292 336.188 455.864 336.324 455.576 336.516C455.288 336.7 455.144 336.936 455.144 337.224C455.144 337.448 455.208 337.636 455.336 337.788C455.472 337.932 455.64 338.04 455.84 338.112C456.048 338.184 456.26 338.22 456.476 338.22ZM461.381 339C461.301 339 461.233 338.976 461.177 338.928C461.129 338.872 461.105 338.804 461.105 338.724V333.036C461.105 332.956 461.129 332.892 461.177 332.844C461.233 332.788 461.301 332.76 461.381 332.76H461.945C462.025 332.76 462.089 332.788 462.137 332.844C462.193 332.892 462.221 332.956 462.221 333.036V333.564C462.429 333.292 462.689 333.072 463.001 332.904C463.321 332.728 463.729 332.64 464.225 332.64C464.745 332.64 465.185 332.756 465.545 332.988C465.913 333.212 466.189 333.528 466.373 333.936C466.557 334.336 466.649 334.804 466.649 335.34V338.724C466.649 338.804 466.625 338.872 466.577 338.928C466.529 338.976 466.465 339 466.385 339H465.785C465.705 339 465.637 338.976 465.581 338.928C465.533 338.872 465.509 338.804 465.509 338.724V335.4C465.509 334.84 465.373 334.404 465.101 334.092C464.829 333.772 464.429 333.612 463.901 333.612C463.405 333.612 463.005 333.772 462.701 334.092C462.405 334.404 462.257 334.84 462.257 335.4V338.724C462.257 338.804 462.229 338.872 462.173 338.928C462.125 338.976 462.061 339 461.981 339H461.381ZM470.902 339.12C470.334 339.12 469.842 339.012 469.426 338.796C469.018 338.572 468.702 338.256 468.478 337.848C468.254 337.432 468.134 336.936 468.118 336.36C468.11 336.24 468.106 336.08 468.106 335.88C468.106 335.68 468.11 335.52 468.118 335.4C468.134 334.824 468.254 334.332 468.478 333.924C468.702 333.508 469.018 333.192 469.426 332.976C469.842 332.752 470.334 332.64 470.902 332.64C471.366 332.64 471.762 332.704 472.09 332.832C472.426 332.96 472.702 333.124 472.918 333.324C473.134 333.524 473.294 333.74 473.398 333.972C473.51 334.204 473.57 334.424 473.578 334.632C473.586 334.712 473.562 334.776 473.506 334.824C473.45 334.872 473.382 334.896 473.302 334.896H472.726C472.646 334.896 472.586 334.88 472.546 334.848C472.506 334.808 472.466 334.744 472.426 334.656C472.282 334.264 472.086 333.988 471.838 333.828C471.59 333.668 471.282 333.588 470.914 333.588C470.434 333.588 470.042 333.736 469.738 334.032C469.442 334.328 469.282 334.804 469.258 335.46C469.25 335.748 469.25 336.028 469.258 336.3C469.282 336.964 469.442 337.444 469.738 337.74C470.042 338.028 470.434 338.172 470.914 338.172C471.282 338.172 471.59 338.092 471.838 337.932C472.086 337.772 472.282 337.496 472.426 337.104C472.466 337.016 472.506 336.956 472.546 336.924C472.586 336.884 472.646 336.864 472.726 336.864H473.302C473.382 336.864 473.45 336.888 473.506 336.936C473.562 336.984 473.586 337.048 473.578 337.128C473.57 337.296 473.534 337.468 473.47 337.644C473.406 337.82 473.302 338 473.158 338.184C473.022 338.36 472.85 338.52 472.642 338.664C472.434 338.8 472.182 338.912 471.886 339C471.598 339.08 471.27 339.12 470.902 339.12ZM477.487 339.12C476.663 339.12 476.007 338.868 475.519 338.364C475.031 337.852 474.763 337.156 474.715 336.276C474.707 336.172 474.703 336.04 474.703 335.88C474.703 335.712 474.707 335.576 474.715 335.472C474.747 334.904 474.879 334.408 475.111 333.984C475.343 333.552 475.659 333.22 476.059 332.988C476.467 332.756 476.943 332.64 477.487 332.64C478.095 332.64 478.603 332.768 479.011 333.024C479.427 333.28 479.743 333.644 479.959 334.116C480.175 334.588 480.283 335.14 480.283 335.772V335.976C480.283 336.064 480.255 336.132 480.199 336.18C480.151 336.228 480.087 336.252 480.007 336.252H475.855C475.855 336.26 475.855 336.276 475.855 336.3C475.855 336.324 475.855 336.344 475.855 336.36C475.871 336.688 475.943 336.996 476.071 337.284C476.199 337.564 476.383 337.792 476.623 337.968C476.863 338.144 477.151 338.232 477.487 338.232C477.775 338.232 478.015 338.188 478.207 338.1C478.399 338.012 478.555 337.916 478.675 337.812C478.795 337.7 478.875 337.616 478.915 337.56C478.987 337.456 479.043 337.396 479.083 337.38C479.123 337.356 479.187 337.344 479.275 337.344H479.851C479.931 337.344 479.995 337.368 480.043 337.416C480.099 337.456 480.123 337.516 480.115 337.596C480.107 337.716 480.043 337.864 479.923 338.04C479.803 338.208 479.631 338.376 479.407 338.544C479.183 338.712 478.911 338.852 478.591 338.964C478.271 339.068 477.903 339.12 477.487 339.12ZM475.855 335.424H479.143V335.388C479.143 335.028 479.075 334.708 478.939 334.428C478.811 334.148 478.623 333.928 478.375 333.768C478.127 333.6 477.831 333.516 477.487 333.516C477.143 333.516 476.847 333.6 476.599 333.768C476.359 333.928 476.175 334.148 476.047 334.428C475.919 334.708 475.855 335.028 475.855 335.388V335.424Z" fill="#191E24"/>
<path d="M105.646 315.146C105.451 315.342 105.451 315.658 105.646 315.854L108.828 319.036C109.024 319.231 109.34 319.231 109.536 319.036C109.731 318.84 109.731 318.524 109.536 318.328L106.707 315.5L109.536 312.672C109.731 312.476 109.731 312.16 109.536 311.964C109.34 311.769 109.024 311.769 108.828 311.964L105.646 315.146ZM233.354 315.854C233.549 315.658 233.549 315.342 233.354 315.146L230.172 311.964C229.976 311.769 229.66 311.769 229.464 311.964C229.269 312.16 229.269 312.476 229.464 312.672L232.293 315.5L229.464 318.328C229.269 318.524 229.269 318.84 229.464 319.036C229.66 319.231 229.976 319.231 230.172 319.036L233.354 315.854ZM106 316H233V315H106V316Z" fill="#191E24"/>
<path d="M617.354 316.854C617.549 316.658 617.549 316.342 617.354 316.146L614.172 312.964C613.976 312.769 613.66 312.769 613.464 312.964C613.269 313.16 613.269 313.476 613.464 313.672L616.293 316.5L613.464 319.328C613.269 319.524 613.269 319.84 613.464 320.036C613.66 320.231 613.976 320.231 614.172 320.036L617.354 316.854ZM236.646 316.146C236.451 316.342 236.451 316.658 236.646 316.854L239.828 320.036C240.024 320.231 240.34 320.231 240.536 320.036C240.731 319.84 240.731 319.524 240.536 319.328L237.707 316.5L240.536 313.672C240.731 313.476 240.731 313.16 240.536 312.964C240.34 312.769 240.024 312.769 239.828 312.964L236.646 316.146ZM617 316L237 316V317L617 317V316Z" fill="#191E24"/>
<path d="M423.847 17.632C423.649 17.4401 423.332 17.4455 423.14 17.644L420.013 20.8795C419.821 21.078 419.826 21.3945 420.025 21.5865C420.223 21.7784 420.54 21.773 420.732 21.5745L423.512 18.6985L426.388 21.4786C426.586 21.6705 426.903 21.6652 427.095 21.4666C427.287 21.2681 427.281 20.9515 427.083 20.7596L423.847 17.632ZM427.152 254.351C427.351 254.543 427.668 254.538 427.859 254.339L430.987 251.104C431.179 250.905 431.174 250.588 430.975 250.397C430.777 250.205 430.46 250.21 430.268 250.409L427.488 253.285L424.612 250.504C424.413 250.312 424.097 250.318 423.905 250.516C423.713 250.715 423.718 251.031 423.917 251.223L427.152 254.351ZM423 18L423.017 19L424.017 18.983L424 17.983L423 18ZM423.051 21L423.085 23L424.085 22.983L424.051 20.983L423.051 21ZM423.119 25L423.153 27L424.152 26.983L424.119 24.983L423.119 25ZM423.186 29L423.22 31L424.22 30.983L424.186 28.983L423.186 29ZM423.254 33L423.288 35L424.288 34.983L424.254 32.983L423.254 33ZM423.322 37L423.356 39L424.356 38.983L424.322 36.983L423.322 37ZM423.39 41L423.424 43L424.424 42.983L424.39 40.983L423.39 41ZM423.458 45L423.492 47L424.491 46.983L424.457 44.983L423.458 45ZM423.525 49L423.559 51L424.559 50.983L424.525 48.983L423.525 49ZM423.593 53L423.627 55L424.627 54.983L424.593 52.983L423.593 53ZM423.661 57L423.695 59L424.695 58.983L424.661 56.983L423.661 57ZM423.729 61L423.763 63L424.763 62.983L424.729 60.983L423.729 61ZM423.797 65L423.831 67L424.83 66.983L424.796 64.983L423.797 65ZM423.864 69L423.898 71L424.898 70.983L424.864 68.983L423.864 69ZM423.932 73L423.966 75L424.966 74.983L424.932 72.983L423.932 73ZM424 77L424.034 79L425.034 78.983L425 76.983L424 77ZM424.068 81L424.102 83L425.102 82.983L425.068 80.983L424.068 81ZM424.136 85L424.17 87L425.169 86.983L425.135 84.983L424.136 85ZM424.203 89L424.237 91L425.237 90.983L425.203 88.983L424.203 89ZM424.271 93L424.305 95L425.305 94.983L425.271 92.983L424.271 93ZM424.339 97L424.373 99L425.373 98.9831L425.339 96.983L424.339 97ZM424.407 101L424.441 103L425.441 102.983L425.407 100.983L424.407 101ZM424.475 105L424.508 107L425.508 106.983L425.474 104.983L424.475 105ZM424.542 109L424.576 111L425.576 110.983L425.542 108.983L424.542 109ZM424.61 113L424.644 115L425.644 114.983L425.61 112.983L424.61 113ZM424.678 117L424.712 119L425.712 118.983L425.678 116.983L424.678 117ZM424.746 121L424.78 123L425.78 122.983L425.746 120.983L424.746 121ZM424.814 125L424.847 127L425.847 126.983L425.813 124.983L424.814 125ZM424.881 129L424.915 131L425.915 130.983L425.881 128.983L424.881 129ZM424.949 133L424.983 135L425.983 134.983L425.949 132.983L424.949 133ZM425.017 137L425.051 139L426.051 138.983L426.017 136.983L425.017 137ZM425.085 141L425.119 143L426.119 142.983L426.085 140.983L425.085 141ZM425.153 145L425.186 147L426.186 146.983L426.152 144.983L425.153 145ZM425.22 149L425.254 151L426.254 150.983L426.22 148.983L425.22 149ZM425.288 153L425.322 155L426.322 154.983L426.288 152.983L425.288 153ZM425.356 157L425.39 159L426.39 158.983L426.356 156.983L425.356 157ZM425.424 161L425.458 163L426.457 162.983L426.424 160.983L425.424 161ZM425.492 165L425.525 167L426.525 166.983L426.491 164.983L425.492 165ZM425.559 169L425.593 171L426.593 170.983L426.559 168.983L425.559 169ZM425.627 173L425.661 175L426.661 174.983L426.627 172.983L425.627 173ZM425.695 177L425.729 179L426.729 178.983L426.695 176.983L425.695 177ZM425.763 181L425.797 183L426.796 182.983L426.763 180.983L425.763 181ZM425.831 185L425.864 187L426.864 186.983L426.83 184.983L425.831 185ZM425.898 189L425.932 191L426.932 190.983L426.898 188.983L425.898 189ZM425.966 193L426 195L427 194.983L426.966 192.983L425.966 193ZM426.034 197L426.068 199L427.068 198.983L427.034 196.983L426.034 197ZM426.102 201L426.136 203L427.135 202.983L427.102 200.983L426.102 201ZM426.17 205L426.203 207L427.203 206.983L427.169 204.983L426.17 205ZM426.237 209L426.271 211L427.271 210.983L427.237 208.983L426.237 209ZM426.305 213L426.339 215L427.339 214.983L427.305 212.983L426.305 213ZM426.373 217L426.407 219L427.407 218.983L427.373 216.983L426.373 217ZM426.441 221L426.475 223L427.474 222.983L427.441 220.983L426.441 221ZM426.508 225L426.542 227L427.542 226.983L427.508 224.983L426.508 225ZM426.576 229L426.61 231L427.61 230.983L427.576 228.983L426.576 229ZM426.644 233L426.678 235L427.678 234.983L427.644 232.983L426.644 233ZM426.712 237L426.746 239L427.746 238.983L427.712 236.983L426.712 237ZM426.78 241L426.814 243L427.813 242.983L427.78 240.983L426.78 241ZM426.847 245L426.881 247L427.881 246.983L427.847 244.983L426.847 245ZM426.915 249L426.949 251L427.949 250.983L427.915 248.983L426.915 249ZM426.983 253L427 254L428 253.983L427.983 252.983L426.983 253Z" fill="#191E24"/>
</svg>
