<svg width="64" height="64" viewBox="0 0 64 64" fill="none" xmlns="http://www.w3.org/2000/svg">
<mask id="mask0_63_21" style="mask-type:alpha" maskUnits="userSpaceOnUse" x="0" y="0" width="64" height="64">
<rect width="64" height="64" fill="black"/>
</mask>
<g mask="url(#mask0_63_21)">
<circle cx="15.0681" cy="47.7112" r="11.2596" transform="rotate(45 15.0681 47.7112)" fill="#FF1F70"/>
<path fill-rule="evenodd" clip-rule="evenodd" d="M8.87638 23.4919L8.87643 23.4918L8.87836 23.4938C8.95864 23.4109 9.0397 23.3286 9.12155 23.2468C17.6473 14.721 31.4704 14.721 39.9962 23.2468C48.522 31.7726 48.522 45.5956 39.9962 54.1214C39.9144 54.2033 39.832 54.2843 39.7492 54.3646L39.7511 54.3665C39.7511 54.3665 39.751 54.3665 39.751 54.3665C38.3977 55.7198 38.3977 57.9139 39.751 59.2672C41.1043 60.6205 43.2985 60.6205 44.6518 59.2672C44.6726 59.2464 44.6932 59.2253 44.7134 59.204C44.7748 59.1437 44.8359 59.0831 44.8969 59.0222C56.1293 47.7898 56.1293 29.5784 44.8969 18.346C33.6645 7.11363 15.4531 7.11363 4.22074 18.346C4.16002 18.4068 4.09962 18.4677 4.03956 18.5288C4.01805 18.5493 3.99674 18.57 3.97564 18.5911C2.62234 19.9444 2.62234 22.1386 3.97564 23.4919C5.32894 24.8452 7.52308 24.8452 8.87638 23.4919Z" fill="#3286FF"/>
<ellipse cx="31.3896" cy="32.1858" rx="15.2005" ry="7.88174" transform="rotate(45 31.3896 32.1858)" fill="#FFBA03"/>
<ellipse cx="51.2941" cy="12.2815" rx="8.44472" ry="6.75578" transform="rotate(45 51.2941 12.2815)" fill="#FF6202"/>
</g>
</svg>
